<?xml version="1.0" encoding="UTF-8" standalone="no"?>
<svg
   xmlns:dc="http://purl.org/dc/elements/1.1/"
   xmlns:cc="http://creativecommons.org/ns#"
   xmlns:rdf="http://www.w3.org/1999/02/22-rdf-syntax-ns#"
   xmlns:svg="http://www.w3.org/2000/svg"
   xmlns="http://www.w3.org/2000/svg"
   id="svg2"
   version="1.1"
   xml:space="preserve"
   width="313.30991"
   height="294.81995"
   viewBox="0 0 313.30991 294.81993"><metadata
     id="metadata8"><rdf:RDF><cc:Work
         rdf:about=""><dc:format>image/svg+xml</dc:format><dc:type
           rdf:resource="http://purl.org/dc/dcmitype/StillImage" /><dc:title></dc:title></cc:Work></rdf:RDF></metadata><defs
     id="defs6"><clipPath
       clipPathUnits="userSpaceOnUse"
       id="clipPath16"><path
         d="m 0,841.89 595.28,0 L 595.28,0 0,0 0,841.89 Z"
         id="path18" /></clipPath></defs><g
     id="g10"
     transform="matrix(1.25,0,0,-1.25,-239.5522,817.37639)"><g
       id="g12"><g
         id="g14"
         clip-path="url(#clipPath16)"><g
           id="g20"
           transform="translate(194.0386,538.667)"><path
             d="m 0,0 c 1.226,6.124 1.545,32.442 13.904,38.107 4.902,2.247 3.467,9.464 11.844,18.024 4.795,4.9 9.269,20.598 15.449,22.658 6.179,2.06 17.509,22.658 35.017,23.688 17.508,1.03 30.898,28.838 64.885,-1.03 5.917,-5.2 28.323,1.03 37.592,-3.09 9.268,-4.119 27.294,-4.634 29.868,-19.568 2.574,-14.934 20.79,-19.892 22.658,-24.718 6.179,-15.964 0.482,-13.51 3.089,-18.539 7.21,-13.904 10.3,-35.017 12.36,-42.226 2.059,-7.21 4.119,-8.754 -7.725,-36.562 -11.844,-27.808 -17.509,-38.108 -27.293,-38.108 -9.784,0 -7.724,-5.664 -8.754,-10.814 -1.03,-5.149 -8.755,-16.994 -15.964,-17.509 -7.209,-0.514 -25.749,-4.634 -31.928,-5.664 -6.178,-1.03 -16.993,3.604 -26.777,1.545 -9.784,-2.06 -12.875,-10.298 -25.233,-5.15 -12.359,5.15 -5.665,11.329 -19.569,12.359 -13.903,1.031 -21.628,13.905 -25.748,17.509 -4.119,3.605 -31.927,12.359 -29.867,23.688 2.06,11.329 -1.545,8.239 -6.695,8.239 C 15.964,-57.161 -10.372,-51.813 0,0"
             id="path22" /></g></g></g></g></svg>
