<?xml version="1.0" encoding="UTF-8" standalone="no"?>
<svg
   xmlns:dc="http://purl.org/dc/elements/1.1/"
   xmlns:cc="http://creativecommons.org/ns#"
   xmlns:rdf="http://www.w3.org/1999/02/22-rdf-syntax-ns#"
   xmlns:svg="http://www.w3.org/2000/svg"
   xmlns="http://www.w3.org/2000/svg"
   id="svg2"
   version="1.1"
   xml:space="preserve"
   width="535.87262"
   height="468.43686"
   viewBox="0 0 535.87262 468.43686"><metadata
     id="metadata8"><rdf:RDF><cc:Work
         rdf:about=""><dc:format>image/svg+xml</dc:format><dc:type
           rdf:resource="http://purl.org/dc/dcmitype/StillImage" /><dc:title></dc:title></cc:Work></rdf:RDF></metadata><defs
     id="defs6"><clipPath
       clipPathUnits="userSpaceOnUse"
       id="clipPath16"><path
         d="M 0,792 612,792 612,0 0,0 0,792 Z"
         id="path18" /></clipPath></defs><g
     id="g10"
     transform="matrix(1.25,0,0,-1.25,-108.50891,674.47848)"><g
       id="g12"><g
         id="g14"
         clip-path="url(#clipPath16)"><g
           id="g20"
           transform="translate(325.6567,485.7703)"><path
             d="m 0,0 c 12.4,15.625 18.984,22.898 27.725,29.533 22.886,17.369 66.552,39.036 91.886,8.369 12.191,-14.758 30.878,-7.672 45.545,-17.672 30.054,-20.491 21.002,-34.713 23.187,-56.101 1.334,-13.057 3.334,-35.899 -8.939,-47.495 -13.534,-12.788 -50.091,-49.189 -53.793,-64.232 -5.493,-22.319 -0.379,-45.429 -45.5,-56.5 -7.815,-1.917 -37.485,8.751 -40.756,-4.333 -4.334,-17.334 24.53,-39 4.624,-56.209 -11.943,-10.325 -38.368,-8.958 -51.094,-19.791 -17.7,-15.068 -53.667,-36.006 -67.823,-36.006 -14.51,0 -33.951,60.839 -33.951,60.839 -19.686,38.642 -23.5,21.5 -37.367,48.996 -4.051,8.032 -3.567,46.278 -11.026,56.504 -14.635,20.065 -27.774,19.484 -45.622,33.613 -17.357,13.741 -35.352,35.887 -35.437,69.427 -0.11,43.627 -0.007,84.627 67.226,73.627 46.036,-7.532 31.693,13.239 57.47,14 19.575,0.577 30.872,-5.091 46.701,-21.093 16.379,-16.558 18.465,-28.504 31.82,-33.267 C -25.881,-21.088 -7.217,-9.094 0,0"
             id="path22" /></g><g
           id="g24"
           transform="translate(325.6567,485.7703)"><path
             d="m 0,0 c 12.4,15.625 18.984,22.898 27.725,29.533 22.886,17.369 66.552,39.036 91.886,8.369 12.191,-14.758 30.878,-7.672 45.545,-17.672 30.054,-20.491 21.002,-34.713 23.187,-56.101 1.334,-13.057 3.334,-35.899 -8.939,-47.495 -13.534,-12.788 -50.091,-49.189 -53.793,-64.232 -5.493,-22.319 -0.379,-45.429 -45.5,-56.5 -7.815,-1.917 -37.485,8.751 -40.756,-4.333 -4.334,-17.334 24.53,-39 4.624,-56.209 -11.943,-10.325 -38.368,-8.958 -51.094,-19.791 -17.7,-15.068 -53.667,-36.006 -67.823,-36.006 -14.51,0 -33.951,60.839 -33.951,60.839 -19.686,38.642 -23.5,21.5 -37.367,48.996 -4.051,8.032 -3.567,46.278 -11.026,56.504 -14.635,20.065 -27.774,19.484 -45.622,33.613 -17.357,13.741 -35.352,35.887 -35.437,69.427 -0.11,43.627 -0.007,84.627 67.226,73.627 46.036,-7.532 31.693,13.239 57.47,14 19.575,0.577 30.872,-5.091 46.701,-21.093 16.379,-16.558 18.465,-28.504 31.82,-33.267 C -25.881,-21.088 -7.217,-9.094 0,0 Z"
             id="path26" /></g></g></g></g></svg>
