<?xml version="1.0" encoding="UTF-8" standalone="no"?>
<svg
   xmlns:dc="http://purl.org/dc/elements/1.1/"
   xmlns:cc="http://creativecommons.org/ns#"
   xmlns:rdf="http://www.w3.org/1999/02/22-rdf-syntax-ns#"
   xmlns:svg="http://www.w3.org/2000/svg"
   xmlns="http://www.w3.org/2000/svg"
   id="svg2"
   version="1.1"
   xml:space="preserve"
   width="573.53229"
   height="584.83008"
   viewBox="0 0 573.53229 584.83008"><metadata
     id="metadata8"><rdf:RDF><cc:Work
         rdf:about=""><dc:format>image/svg+xml</dc:format><dc:type
           rdf:resource="http://purl.org/dc/dcmitype/StillImage" /><dc:title></dc:title></cc:Work></rdf:RDF></metadata><defs
     id="defs6"><clipPath
       clipPathUnits="userSpaceOnUse"
       id="clipPath16"><path
         d="M 0,792 612,792 612,0 0,0 0,792 Z"
         id="path18" /></clipPath></defs><g
     id="g10"
     transform="matrix(1.25,0,0,-1.25,-96.039465,795.77436)"><g
       id="g12"><g
         id="g14"
         clip-path="url(#clipPath16)"><g
           id="g20"
           transform="translate(410,609)"><path
             d="m 0,0 c 11.436,-0.833 12.857,7.078 26,6 7.199,-0.591 14.897,-5.402 30,-15 12.118,-7.702 18.177,-11.552 23,-16 3.628,-3.346 15.482,-14.492 22,-31 7.666,-19.417 0.995,-28.635 2,-77 0.182,-8.734 0.532,-14.85 1,-23 0.497,-8.665 2.343,-38.431 9,-85 3.97,-27.77 4.988,-28.899 6,-43 1.447,-20.165 -0.065,-25.804 1,-47 1.906,-37.935 7.57,-36.231 5,-49 -6.3,-31.295 -43.414,-56.86 -77,-60 -13.538,-1.266 -9.168,2.733 -39,4 -35.159,1.493 -52.091,-3.6 -68,4 -2.106,1.006 -7.519,3.823 -15,4 -7.888,0.187 -12.219,-2.699 -17,-4 -13.623,-3.706 -19.003,8.696 -40,14 -21.337,5.389 -45.319,0.043 -50,-1 -8.982,-2.002 -14.891,-4.449 -23,-2 -8.293,2.505 -10.318,7.544 -20,11 -7.548,2.694 -12.993,2.014 -20,2 -18.933,-0.039 -35.109,4.809 -41,7 -24.919,9.266 -36.963,34.609 -40,41 -11.134,23.428 -8.438,44.731 -6,64 2.155,17.033 5.43,42.912 24,65 9.543,11.351 14.353,11.267 35,32 12.6,12.653 14.592,16.484 26,29 40.23,44.139 65.433,51.327 69,79 0.733,5.684 -0.502,4.047 0,18 0.899,24.986 1.446,40.177 9,52 2.329,3.645 4.365,5.469 45,25 30.086,14.46 37.54,17.579 49,20 16.06,3.392 24.09,5.088 34,2 C -19.571,19.634 -17.238,1.256 0,0"
             id="path22" /></g><g
           id="g24"
           transform="translate(410,609)"><path
             d="m 0,0 c 11.436,-0.833 12.857,7.078 26,6 7.199,-0.591 14.897,-5.402 30,-15 12.118,-7.702 18.177,-11.552 23,-16 3.628,-3.346 15.482,-14.492 22,-31 7.666,-19.417 0.995,-28.635 2,-77 0.182,-8.734 0.532,-14.85 1,-23 0.497,-8.665 2.343,-38.431 9,-85 3.97,-27.77 4.988,-28.899 6,-43 1.447,-20.165 -0.065,-25.804 1,-47 1.906,-37.935 7.57,-36.231 5,-49 -6.3,-31.295 -43.414,-56.86 -77,-60 -13.538,-1.266 -9.168,2.733 -39,4 -35.159,1.493 -52.091,-3.6 -68,4 -2.106,1.006 -7.519,3.823 -15,4 -7.888,0.187 -12.219,-2.699 -17,-4 -13.623,-3.706 -19.003,8.696 -40,14 -21.337,5.389 -45.319,0.043 -50,-1 -8.982,-2.002 -14.891,-4.449 -23,-2 -8.293,2.505 -10.318,7.544 -20,11 -7.548,2.694 -12.993,2.014 -20,2 -18.933,-0.039 -35.109,4.809 -41,7 -24.919,9.266 -36.963,34.609 -40,41 -11.134,23.428 -8.438,44.731 -6,64 2.155,17.033 5.43,42.912 24,65 9.543,11.351 14.353,11.267 35,32 12.6,12.653 14.592,16.484 26,29 40.23,44.139 65.433,51.327 69,79 0.733,5.684 -0.502,4.047 0,18 0.899,24.986 1.446,40.177 9,52 2.329,3.645 4.365,5.469 45,25 30.086,14.46 37.54,17.579 49,20 16.06,3.392 24.09,5.088 34,2 C -19.571,19.634 -17.238,1.256 0,0 Z"
             id="path26" /></g></g></g></g></svg>