<?xml version="1.0" encoding="UTF-8" standalone="no"?>
<svg
   xmlns:dc="http://purl.org/dc/elements/1.1/"
   xmlns:cc="http://creativecommons.org/ns#"
   xmlns:rdf="http://www.w3.org/1999/02/22-rdf-syntax-ns#"
   xmlns:svg="http://www.w3.org/2000/svg"
   xmlns="http://www.w3.org/2000/svg"
   id="svg2"
   version="1.1"
   xml:space="preserve"
   width="395.07135"
   height="358.35428"
   viewBox="0 0 395.07135 358.35428"><metadata
     id="metadata8"><rdf:RDF><cc:Work
         rdf:about=""><dc:format>image/svg+xml</dc:format><dc:type
           rdf:resource="http://purl.org/dc/dcmitype/StillImage" /><dc:title></dc:title></cc:Work></rdf:RDF></metadata><defs
     id="defs6"><clipPath
       clipPathUnits="userSpaceOnUse"
       id="clipPath16"><path
         d="M 0,792 612,792 612,0 0,0 0,792 Z"
         id="path18" /></clipPath></defs><g
     id="g10"
     transform="matrix(1.25,0,0,-1.25,-160.18895,779.89622)"><g
       id="g12"><g
         id="g14"
         clip-path="url(#clipPath16)"><g
           id="g20"
           transform="translate(215.3333,588.6667)"><path
             d="m 0,0 c 22.544,-15.126 35.302,-23.685 52,-23.333 21.098,0.444 23.59,14.592 55.333,25.333 11.824,4.001 47.663,16.128 62,1.333 8.553,-8.825 5.583,-23.234 15.334,-52.666 2.185,-6.596 4.3,-11.808 9.333,-15.334 5.544,-3.884 10.894,-3.106 12.667,-7.333 1.278,-3.049 -0.218,-6.525 -2,-10.667 -0.172,-0.399 -2.421,-5.532 -6,-9.333 -11.525,-12.238 -33.308,-6.918 -40.667,-18.667 -2.663,-4.251 -2.268,-8.871 -2,-12 2.636,-30.816 62.209,-35.516 71.333,-72.666 0.377,-1.535 2.783,-11.906 -1.333,-23.334 -6.81,-18.907 -27.66,-30.119 -45.333,-32 -22.277,-2.371 -24.665,11.662 -50.667,14.667 -35.977,4.158 -49.034,-20.67 -73.333,-11.333 -17.533,6.736 -28.954,26.662 -31.334,43.333 -4.002,28.042 17.944,44.309 10.667,54 -9.879,13.155 -49.758,-17.58 -84.667,0.667 -11.01,5.755 -25.992,18.717 -26,33.333 -0.006,12.229 10.473,17.44 9.334,30.667 -0.974,11.303 -9.363,16.019 -14.667,24 -19.155,28.819 6.517,93.271 32,96 C -35.96,35.956 -33.461,22.45 0,0"
             id="path22" /></g><g
           id="g24"
           transform="translate(215.3333,588.6667)"><path
             d="m 0,0 c 22.544,-15.126 35.302,-23.685 52,-23.333 21.098,0.444 23.59,14.592 55.333,25.333 11.824,4.001 47.663,16.128 62,1.333 8.553,-8.825 5.583,-23.234 15.334,-52.666 2.185,-6.596 4.3,-11.808 9.333,-15.334 5.544,-3.884 10.894,-3.106 12.667,-7.333 1.278,-3.049 -0.218,-6.525 -2,-10.667 -0.172,-0.399 -2.421,-5.532 -6,-9.333 -11.525,-12.238 -33.308,-6.918 -40.667,-18.667 -2.663,-4.251 -2.268,-8.871 -2,-12 2.636,-30.816 62.209,-35.516 71.333,-72.666 0.377,-1.535 2.783,-11.906 -1.333,-23.334 -6.81,-18.907 -27.66,-30.119 -45.333,-32 -22.277,-2.371 -24.665,11.662 -50.667,14.667 -35.977,4.158 -49.034,-20.67 -73.333,-11.333 -17.533,6.736 -28.954,26.662 -31.334,43.333 -4.002,28.042 17.944,44.309 10.667,54 -9.879,13.155 -49.758,-17.58 -84.667,0.667 -11.01,5.755 -25.992,18.717 -26,33.333 -0.006,12.229 10.473,17.44 9.334,30.667 -0.974,11.303 -9.363,16.019 -14.667,24 -19.155,28.819 6.517,93.271 32,96 C -35.96,35.956 -33.461,22.45 0,0 Z"
             id="path26" /></g></g></g></g></svg>
