<?xml version="1.0" encoding="UTF-8" standalone="no"?>
<svg
   xmlns:dc="http://purl.org/dc/elements/1.1/"
   xmlns:cc="http://creativecommons.org/ns#"
   xmlns:rdf="http://www.w3.org/1999/02/22-rdf-syntax-ns#"
   xmlns:svg="http://www.w3.org/2000/svg"
   xmlns="http://www.w3.org/2000/svg"
   id="svg2"
   version="1.1"
   xml:space="preserve"
   width="390.2832"
   height="671.83521"
   viewBox="0 0 390.2832 671.83521"><metadata
     id="metadata8"><rdf:RDF><cc:Work
         rdf:about=""><dc:format>image/svg+xml</dc:format><dc:type
           rdf:resource="http://purl.org/dc/dcmitype/StillImage" /><dc:title></dc:title></cc:Work></rdf:RDF></metadata><defs
     id="defs6"><clipPath
       clipPathUnits="userSpaceOnUse"
       id="clipPath16"><path
         d="M 0,792 612,792 612,0 0,0 0,792 Z"
         id="path18" /></clipPath></defs><g
     id="g10"
     transform="matrix(1.25,0,0,-1.25,-251.25029,851.81575)"><g
       id="g12"><g
         id="g14"
         clip-path="url(#clipPath16)"><g
           id="g20"
           transform="translate(302.0906,146.4221)"><path
             d="m 0,0 c 12.743,3.121 21.197,9.276 26.999,13.499 20.745,15.103 43.799,45.077 40.498,74.997 -1.277,11.567 -5.888,17.646 -3,29.998 2.169,9.279 6.34,12.555 8.999,25.499 0.516,2.511 1.945,10.106 1.5,19.499 -0.945,19.946 -9.221,24.404 -7.499,32.998 2.324,11.599 19.38,13.358 53.997,26.999 37.767,14.882 56.808,22.687 64.497,40.498 3.375,7.818 2.366,12.357 8.999,28.498 6.755,16.436 10.409,18.076 13.5,26.999 5.249,15.154 0.165,26.173 -7.5,55.497 -9.855,37.706 -4.906,32.71 -11.999,55.498 -9.811,31.514 -17.479,56.148 -40.498,76.496 -6.852,6.056 -29.711,26.262 -59.997,26.998 -15.827,0.385 -20.402,-4.87 -41.998,-3 -18.31,1.586 -24.857,6.215 -34.499,1.5 C 2.123,527.644 2.951,519.834 -9,511.474 c -9.984,-6.984 -17.628,-6.475 -25.498,-8.999 -25.938,-8.319 -41.719,-45.53 -44.998,-71.996 -4.109,-33.168 12.388,-41.62 3,-71.997 -5.427,-17.557 -12.152,-18.66 -13.5,-34.498 -1.636,-19.225 7.615,-25.335 9,-50.998 0.894,-16.556 -2.919,-14.705 -3,-34.498 -0.118,-29.011 8.061,-35.969 6,-56.997 -1.637,-16.708 -7.877,-23.293 -13.499,-37.498 C -104.781,110.426 -106.758,54.184 -74.996,22.499 -57.084,4.629 -27.205,-6.663 0,0"
             id="path22" /></g><g
           id="g24"
           transform="translate(302.0906,146.4221)"><path
             d="m 0,0 c 12.743,3.121 21.197,9.276 26.999,13.499 20.745,15.103 43.799,45.077 40.498,74.997 -1.277,11.567 -5.888,17.646 -3,29.998 2.169,9.279 6.34,12.555 8.999,25.499 0.516,2.511 1.945,10.106 1.5,19.499 -0.945,19.946 -9.221,24.404 -7.499,32.998 2.324,11.599 19.38,13.358 53.997,26.999 37.767,14.882 56.808,22.687 64.497,40.498 3.375,7.818 2.366,12.357 8.999,28.498 6.755,16.436 10.409,18.076 13.5,26.999 5.249,15.154 0.165,26.173 -7.5,55.497 -9.855,37.706 -4.906,32.71 -11.999,55.498 -9.811,31.514 -17.479,56.148 -40.498,76.496 -6.852,6.056 -29.711,26.262 -59.997,26.998 -15.827,0.385 -20.402,-4.87 -41.998,-3 -18.31,1.586 -24.857,6.215 -34.499,1.5 C 2.123,527.644 2.951,519.834 -9,511.474 c -9.984,-6.984 -17.628,-6.475 -25.498,-8.999 -25.938,-8.319 -41.719,-45.53 -44.998,-71.996 -4.109,-33.168 12.388,-41.62 3,-71.997 -5.427,-17.557 -12.152,-18.66 -13.5,-34.498 -1.636,-19.225 7.615,-25.335 9,-50.998 0.894,-16.556 -2.919,-14.705 -3,-34.498 -0.118,-29.011 8.061,-35.969 6,-56.997 -1.637,-16.708 -7.877,-23.293 -13.499,-37.498 C -104.781,110.426 -106.758,54.184 -74.996,22.499 -57.084,4.629 -27.205,-6.663 0,0 Z"
             id="path26" /></g></g></g></g></svg>
