<?xml version="1.0" encoding="UTF-8" standalone="no"?>
<svg
   xmlns:dc="http://purl.org/dc/elements/1.1/"
   xmlns:cc="http://creativecommons.org/ns#"
   xmlns:rdf="http://www.w3.org/1999/02/22-rdf-syntax-ns#"
   xmlns:svg="http://www.w3.org/2000/svg"
   xmlns="http://www.w3.org/2000/svg"
   id="svg2"
   version="1.1"
   xml:space="preserve"
   width="321.49207"
   height="293.51181"
   viewBox="0 0 321.49207 293.5118"><metadata
     id="metadata8"><rdf:RDF><cc:Work
         rdf:about=""><dc:format>image/svg+xml</dc:format><dc:type
           rdf:resource="http://purl.org/dc/dcmitype/StillImage" /><dc:title></dc:title></cc:Work></rdf:RDF></metadata><defs
     id="defs6"><clipPath
       clipPathUnits="userSpaceOnUse"
       id="clipPath16"><path
         d="m 0,841.89 595.28,0 L 595.28,0 0,0 0,841.89 Z"
         id="path18" /></clipPath><clipPath
       clipPathUnits="userSpaceOnUse"
       id="clipPath24"><path
         d="m 176.236,602.767 257.194,0 0,-234.81 -257.194,0 0,234.81 z"
         id="path26" /></clipPath></defs><g
     id="g10"
     transform="matrix(1.25,0,0,-1.25,-220.29515,753.45806)"><g
       id="g12"><g
         id="g14"
         clip-path="url(#clipPath16)"><g
           id="g20"><g
             id="g22" /><g
             id="g28"><g
               clip-path="url(#clipPath24)"
               id="g30"><g
                 transform="translate(334.46,497.8442)"
                 id="g32"><path
                   d="m 0,0 c -5.787,-3.473 -8.124,-11.576 -7.522,-20.256 0.601,-8.68 -21.917,-5.221 -25.398,-1.758 -3.48,3.463 -12.779,18.485 -12.799,26.008 -0.02,7.524 2.847,17.947 7.477,17.96 4.63,0.012 8.698,-6.922 13.888,0.036 5.19,6.957 5.172,13.324 9.236,8.705 4.064,-4.619 5.806,-7.508 10.45,-12.705 C -0.024,12.794 4.001,2.4 0,0 m 95.487,-95.487 c -4.629,5.787 -15.516,17.535 -21.991,35.88 -6.944,19.675 -10.417,29.513 -9.259,44.56 C 61.922,21.412 50.927,27.777 43.982,46.875 37.038,65.973 32.408,79.861 24.885,89.699 17.361,99.537 4.63,103.009 -3.472,104.745 -11.573,106.481 -31.828,94.907 -36.457,94.328 -41.086,93.75 -63.078,82.754 -70.022,63.078 -76.967,43.402 -86.805,33.564 -97.8,22.569 c -10.995,-10.995 -25.463,-56.714 -35.301,-68.288 -9.838,-11.574 -22.569,-34.721 -24.884,-48.61 -2.315,-13.888 12.731,-16.783 21.99,-19.097 9.26,-2.315 42.246,24.304 42.246,24.304 6.366,3.473 28.935,15.626 48.032,16.206 28.936,-27.78 51.688,10.32 67.708,-8.104 11.574,-13.311 21.412,-23.727 34.723,-41.088 5.041,-6.574 30.093,-12.152 37.037,-2.892 6.944,9.259 6.365,23.726 1.736,29.513"
                   id="path34" /></g></g></g></g></g></g></g></svg>
