<?xml version="1.0" encoding="UTF-8" standalone="no"?>
<svg
   xmlns:dc="http://purl.org/dc/elements/1.1/"
   xmlns:cc="http://creativecommons.org/ns#"
   xmlns:rdf="http://www.w3.org/1999/02/22-rdf-syntax-ns#"
   xmlns:svg="http://www.w3.org/2000/svg"
   xmlns="http://www.w3.org/2000/svg"
   id="svg2"
   version="1.1"
   xml:space="preserve"
   width="238.97316"
   height="454.97708"
   viewBox="0 0 238.97316 454.97708"><metadata
     id="metadata8"><rdf:RDF><cc:Work
         rdf:about=""><dc:format>image/svg+xml</dc:format><dc:type
           rdf:resource="http://purl.org/dc/dcmitype/StillImage" /><dc:title></dc:title></cc:Work></rdf:RDF></metadata><defs
     id="defs6"><clipPath
       clipPathUnits="userSpaceOnUse"
       id="clipPath16"><path
         d="M 0,792 612,792 612,0 0,0 0,792 Z"
         id="path18" /></clipPath></defs><g
     id="g10"
     transform="matrix(1.25,0,0,-1.25,-180.73433,826.94317)"><g
       id="g12"><g
         id="g14"
         clip-path="url(#clipPath16)"><g
           id="g20"
           transform="translate(192.6667,497.3333)"><path
             d="m 0,0 c 9.145,-6.489 13.718,-9.734 19.333,-12 7.721,-3.116 13.657,-3.744 17.334,-9.333 0.826,-1.257 3.702,-6.053 2,-10 C 36.745,-35.79 30.194,-36.363 18,-38 c -19.731,-2.648 -29.724,-4.039 -36,-7.333 -8.763,-4.6 -13.508,-11.281 -17.333,-16.667 -3.01,-4.237 -15.717,-22.13 -11.334,-42 1.3,-5.889 2.428,-4.371 6,-14.667 5.499,-15.847 3.161,-20.409 7.334,-33.333 3.867,-11.98 6.892,-21.349 15.333,-26 9.418,-5.189 16.79,0.336 30,-6.667 6.084,-3.225 4.941,-4.619 10.667,-8 12.29,-7.255 32.907,-9.891 46,-0.666 7.58,5.341 8.654,11.851 18.666,15.333 5.404,1.879 5.471,0.115 11.334,2 13.958,4.487 21.274,16.959 22.666,19.333 1.638,2.792 0.997,2.383 4,8.667 5.49,11.487 10.387,18.619 12,21.333 10.742,18.071 4.742,56.977 -15.333,72 -2.907,2.175 -6.827,4.339 -14.667,8.667 -17.063,9.419 -24.432,11.253 -24.666,16 -0.198,4.008 4.773,8.409 9.333,9.333 5.075,1.028 7.054,-2.775 12,-2 5.369,0.842 5.95,5.78 12,10.667 9.821,7.933 18.704,3.336 21.333,8.667 3.413,6.92 -11.419,14.945 -9.333,28 1.17,7.324 6.229,7.24 7.333,16 0.967,7.666 -2.556,10.526 -1.333,18.666 0.945,6.292 3.751,9.254 5.333,12.667 7.586,16.364 -13.315,42.354 -20,50.667 -9.233,11.481 -25.813,32.098 -44.666,32.666 -5.826,0.176 -15.437,-1.455 -24.667,4 -2.258,1.335 -4.608,3.161 -8.667,4 -4.111,0.85 -8.427,0.367 -14.666,-2 -9.208,-3.492 -15.637,-8.444 -20,-12 C -0.27,143.681 -9.467,136.186 -16,128 -32.558,107.252 -43.726,67.374 -28,34 -26.686,31.21 -17.637,12.515 0,0"
             id="path22" /></g><g
           id="g24"
           transform="translate(192.6667,497.3333)"><path
             d="m 0,0 c 9.145,-6.489 13.718,-9.734 19.333,-12 7.721,-3.116 13.657,-3.744 17.334,-9.333 0.826,-1.257 3.702,-6.053 2,-10 C 36.745,-35.79 30.194,-36.363 18,-38 c -19.731,-2.648 -29.724,-4.039 -36,-7.333 -8.763,-4.6 -13.508,-11.281 -17.333,-16.667 -3.01,-4.237 -15.717,-22.13 -11.334,-42 1.3,-5.889 2.428,-4.371 6,-14.667 5.499,-15.847 3.161,-20.409 7.334,-33.333 3.867,-11.98 6.892,-21.349 15.333,-26 9.418,-5.189 16.79,0.336 30,-6.667 6.084,-3.225 4.941,-4.619 10.667,-8 12.29,-7.255 32.907,-9.891 46,-0.666 7.58,5.341 8.654,11.851 18.666,15.333 5.404,1.879 5.471,0.115 11.334,2 13.958,4.487 21.274,16.959 22.666,19.333 1.638,2.792 0.997,2.383 4,8.667 5.49,11.487 10.387,18.619 12,21.333 10.742,18.071 4.742,56.977 -15.333,72 -2.907,2.175 -6.827,4.339 -14.667,8.667 -17.063,9.419 -24.432,11.253 -24.666,16 -0.198,4.008 4.773,8.409 9.333,9.333 5.075,1.028 7.054,-2.775 12,-2 5.369,0.842 5.95,5.78 12,10.667 9.821,7.933 18.704,3.336 21.333,8.667 3.413,6.92 -11.419,14.945 -9.333,28 1.17,7.324 6.229,7.24 7.333,16 0.967,7.666 -2.556,10.526 -1.333,18.666 0.945,6.292 3.751,9.254 5.333,12.667 7.586,16.364 -13.315,42.354 -20,50.667 -9.233,11.481 -25.813,32.098 -44.666,32.666 -5.826,0.176 -15.437,-1.455 -24.667,4 -2.258,1.335 -4.608,3.161 -8.667,4 -4.111,0.85 -8.427,0.367 -14.666,-2 -9.208,-3.492 -15.637,-8.444 -20,-12 C -0.27,143.681 -9.467,136.186 -16,128 -32.558,107.252 -43.726,67.374 -28,34 -26.686,31.21 -17.637,12.515 0,0 Z"
             id="path26" /></g></g></g></g></svg>
