<?xml version="1.0" encoding="UTF-8" standalone="no"?>
<svg
   xmlns:dc="http://purl.org/dc/elements/1.1/"
   xmlns:cc="http://creativecommons.org/ns#"
   xmlns:rdf="http://www.w3.org/1999/02/22-rdf-syntax-ns#"
   xmlns:svg="http://www.w3.org/2000/svg"
   xmlns="http://www.w3.org/2000/svg"
   id="svg2"
   version="1.1"
   xml:space="preserve"
   width="549.07007"
   height="552.20453"
   viewBox="0 0 549.07007 552.20453"><metadata
     id="metadata8"><rdf:RDF><cc:Work
         rdf:about=""><dc:format>image/svg+xml</dc:format><dc:type
           rdf:resource="http://purl.org/dc/dcmitype/StillImage" /><dc:title></dc:title></cc:Work></rdf:RDF></metadata><defs
     id="defs6"><clipPath
       clipPathUnits="userSpaceOnUse"
       id="clipPath16"><path
         d="M 0,792 612,792 612,0 0,0 0,792 Z"
         id="path18" /></clipPath></defs><g
     id="g10"
     transform="matrix(1.25,0,0,-1.25,-146.79996,749.07272)"><g
       id="g12"><g
         id="g14"
         clip-path="url(#clipPath16)"><g
           id="g20"
           transform="translate(294.591,587.4)"><path
             d="M 0,0 C 13.753,4.86 14.309,8.368 25.499,10.499 45.349,14.28 51.216,4.69 82.496,0 c 25.998,-3.898 28.542,1.738 44.998,-4.5 9.013,-3.416 5.854,-4.199 34.498,-22.499 19.624,-12.537 26.429,-15.569 32.998,-25.498 4.895,-7.399 4.054,-10.153 9,-20.999 8.14,-17.851 18.44,-27.979 23.999,-34.499 22.908,-26.866 28.124,-66.111 31.498,-91.495 4.411,-33.187 0.944,-59.794 -1.5,-73.496 -3.126,-17.527 -7.69,-31.373 -11.999,-41.998 -8.047,-19.844 -13.102,-32.307 -25.499,-41.998 -14.176,-11.081 -20.114,-4.593 -35.998,-16.499 -17.447,-13.078 -13.623,-23.409 -28.499,-29.999 -13.248,-5.869 -20.468,0.469 -34.498,-7.499 -10.109,-5.742 -8.655,-10.336 -16.499,-15 -15.907,-9.457 -32.416,3.17 -62.997,7.5 -28.706,4.064 -27.508,-5.173 -50.998,-1.5 -30.853,4.824 -52.018,23.747 -82.495,50.997 -16.148,14.438 -25.7,25.731 -41.998,44.998 -20.975,24.797 -31.493,37.471 -32.999,50.998 -1.935,17.386 6.422,24.439 1.5,44.997 -3.234,13.508 -7.927,14.995 -10.499,26.999 -3.889,18.144 2.866,33.253 7.499,44.998 20.396,51.699 6.051,54.34 22.499,83.996 2.19,3.948 36.418,63.871 86.996,67.496 C -41.054,-3.249 -25.355,-8.959 0,0"
             id="path22" /></g><g
           id="g24"
           transform="translate(294.591,587.4)"><path
             d="M 0,0 C 13.753,4.86 14.309,8.368 25.499,10.499 45.349,14.28 51.216,4.69 82.496,0 c 25.998,-3.898 28.542,1.738 44.998,-4.5 9.013,-3.416 5.854,-4.199 34.498,-22.499 19.624,-12.537 26.429,-15.569 32.998,-25.498 4.895,-7.399 4.054,-10.153 9,-20.999 8.14,-17.851 18.44,-27.979 23.999,-34.499 22.908,-26.866 28.124,-66.111 31.498,-91.495 4.411,-33.187 0.944,-59.794 -1.5,-73.496 -3.126,-17.527 -7.69,-31.373 -11.999,-41.998 -8.047,-19.844 -13.102,-32.307 -25.499,-41.998 -14.176,-11.081 -20.114,-4.593 -35.998,-16.499 -17.447,-13.078 -13.623,-23.409 -28.499,-29.999 -13.248,-5.869 -20.468,0.469 -34.498,-7.499 -10.109,-5.742 -8.655,-10.336 -16.499,-15 -15.907,-9.457 -32.416,3.17 -62.997,7.5 -28.706,4.064 -27.508,-5.173 -50.998,-1.5 -30.853,4.824 -52.018,23.747 -82.495,50.997 -16.148,14.438 -25.7,25.731 -41.998,44.998 -20.975,24.797 -31.493,37.471 -32.999,50.998 -1.935,17.386 6.422,24.439 1.5,44.997 -3.234,13.508 -7.927,14.995 -10.499,26.999 -3.889,18.144 2.866,33.253 7.499,44.998 20.396,51.699 6.051,54.34 22.499,83.996 2.19,3.948 36.418,63.871 86.996,67.496 C -41.054,-3.249 -25.355,-8.959 0,0 Z"
             id="path26" /></g></g></g></g></svg>
