<?xml version="1.0" encoding="UTF-8" standalone="no"?>
<svg
   xmlns:dc="http://purl.org/dc/elements/1.1/"
   xmlns:cc="http://creativecommons.org/ns#"
   xmlns:rdf="http://www.w3.org/1999/02/22-rdf-syntax-ns#"
   xmlns:svg="http://www.w3.org/2000/svg"
   xmlns="http://www.w3.org/2000/svg"
   id="svg2"
   version="1.1"
   xml:space="preserve"
   width="611.94586"
   height="656.83099"
   viewBox="0 0 611.94586 656.83099"><metadata
     id="metadata8"><rdf:RDF><cc:Work
         rdf:about=""><dc:format>image/svg+xml</dc:format><dc:type
           rdf:resource="http://purl.org/dc/dcmitype/StillImage" /><dc:title></dc:title></cc:Work></rdf:RDF></metadata><defs
     id="defs6"><clipPath
       clipPathUnits="userSpaceOnUse"
       id="clipPath16"><path
         d="M 0,792 612,792 612,0 0,0 0,792 Z"
         id="path18" /></clipPath></defs><g
     id="g10"
     transform="matrix(1.25,0,0,-1.25,-115.55738,798.27831)"><g
       id="g12"><g
         id="g14"
         clip-path="url(#clipPath16)"><g
           id="g20"
           transform="translate(231,533)"><path
             d="m 0,0 c 20.483,-3.226 39.097,12.469 42,15 5.857,5.107 11.667,12.35 17,19 7.949,9.911 9.212,13.142 15,17 8.319,5.546 11.228,2.55 19,8 9.065,6.356 6.755,11.587 15,17 7.66,5.029 12.116,2.13 24,6 10.8,3.517 17.009,9.131 21,12 18.668,13.421 52.002,12.218 70,9 41.017,-7.334 86.789,-40.224 90,-77 1.757,-20.126 -9.357,-39.987 2,-73 1.563,-4.542 1.548,-3.512 4,-10 13.301,-35.195 7.623,-49.339 15,-81 8.223,-35.289 20.891,-41.807 15,-60 -2.565,-7.922 -8.043,-13.948 -19,-26 -18.296,-20.125 -31.387,-24.847 -35,-41 -1.542,-6.893 0.358,-8.201 0,-16 -0.89,-19.413 -13.478,-29.168 -46,-65 -31.446,-34.646 -35.007,-42.416 -48,-44 -12.849,-1.567 -23.011,4.367 -33,-3 -9.288,-6.85 -8.942,-18.206 -16,-19 -6.349,-0.715 -8.584,8.255 -19,10 -3.131,0.525 -10.652,-1.567 -19.232,-3.917 C 99.217,-409.902 98.949,-411.733 90,-412 c -1.05,-0.031 -5.478,-0.127 -11,1 -18.364,3.747 -23.671,15.879 -32,14 -7.048,-1.59 -6.734,-11.064 -13,-17 -13.54,-12.826 -47.869,0.282 -66,10 -73.51,39.4 -107.604,144.651 -106,204 0.26,9.634 1.47,18.387 4,65 2.062,37.987 1.764,41.502 5,50 10.031,26.345 24.309,22.557 43,57 8.888,16.379 10.198,25.6 22,34 4.34,3.089 16.865,10.883 32,9 C -15.956,13.004 -15.371,2.421 0,0"
             id="path22" /></g><g
           id="g24"
           transform="translate(231,533)"><path
             d="m 0,0 c 20.483,-3.226 39.097,12.469 42,15 5.857,5.107 11.667,12.35 17,19 7.949,9.911 9.212,13.142 15,17 8.319,5.546 11.228,2.55 19,8 9.065,6.356 6.755,11.587 15,17 7.66,5.029 12.116,2.13 24,6 10.8,3.517 17.009,9.131 21,12 18.668,13.421 52.002,12.218 70,9 41.017,-7.334 86.789,-40.224 90,-77 1.757,-20.126 -9.357,-39.987 2,-73 1.563,-4.542 1.548,-3.512 4,-10 13.301,-35.195 7.623,-49.339 15,-81 8.223,-35.289 20.891,-41.807 15,-60 -2.565,-7.922 -8.043,-13.948 -19,-26 -18.296,-20.125 -31.387,-24.847 -35,-41 -1.542,-6.893 0.358,-8.201 0,-16 -0.89,-19.413 -13.478,-29.168 -46,-65 -31.446,-34.646 -35.007,-42.416 -48,-44 -12.849,-1.567 -23.011,4.367 -33,-3 -9.288,-6.85 -8.942,-18.206 -16,-19 -6.349,-0.715 -8.584,8.255 -19,10 -3.131,0.525 -10.652,-1.567 -19.232,-3.917 C 99.217,-409.902 98.949,-411.733 90,-412 c -1.05,-0.031 -5.478,-0.127 -11,1 -18.364,3.747 -23.671,15.879 -32,14 -7.048,-1.59 -6.734,-11.064 -13,-17 -13.54,-12.826 -47.869,0.282 -66,10 -73.51,39.4 -107.604,144.651 -106,204 0.26,9.634 1.47,18.387 4,65 2.062,37.987 1.764,41.502 5,50 10.031,26.345 24.309,22.557 43,57 8.888,16.379 10.198,25.6 22,34 4.34,3.089 16.865,10.883 32,9 C -15.956,13.004 -15.371,2.421 0,0 Z"
             id="path26" /></g></g></g></g></svg>
