<?xml version="1.0" encoding="UTF-8" standalone="no"?>
<svg
   xmlns:dc="http://purl.org/dc/elements/1.1/"
   xmlns:cc="http://creativecommons.org/ns#"
   xmlns:rdf="http://www.w3.org/1999/02/22-rdf-syntax-ns#"
   xmlns:svg="http://www.w3.org/2000/svg"
   xmlns="http://www.w3.org/2000/svg"
   id="svg2"
   version="1.1"
   xml:space="preserve"
   width="424.85242"
   height="767.72919"
   viewBox="0 0 424.85242 767.72919"><metadata
     id="metadata8"><rdf:RDF><cc:Work
         rdf:about=""><dc:format>image/svg+xml</dc:format><dc:type
           rdf:resource="http://purl.org/dc/dcmitype/StillImage" /><dc:title></dc:title></cc:Work></rdf:RDF></metadata><defs
     id="defs6"><clipPath
       clipPathUnits="userSpaceOnUse"
       id="clipPath16"><path
         d="M 0,792 612,792 612,0 0,0 0,792 Z"
         id="path18" /></clipPath></defs><g
     id="g10"
     transform="matrix(1.25,0,0,-1.25,-249.54438,888.94167)"><g
       id="g12"><g
         id="g14"
         clip-path="url(#clipPath16)"><g
           id="g20"
           transform="translate(290,487)"><path
             d="m 0,0 c 20.815,7.687 28.81,3.626 40,14 10.639,9.863 13.849,23.212 15,28 3.7,15.388 -1.854,17.412 0,39 1.044,12.159 2.824,11.721 7,38 1.769,11.132 2.654,16.698 3,23 1.086,19.752 -2.854,24.092 -2,36 1.004,14.012 8.435,35.572 25,43 17.044,7.643 36.702,-2.841 52,-11 2.295,-1.224 13.196,-9.149 35,-25 16.513,-12.004 21.924,-16.082 27,-20 16.226,-12.525 24.339,-18.788 26,-21 18.887,-25.146 9.482,-69.067 5,-90 -0.387,-1.807 -1.444,-6.525 -2,-13 -0.417,-4.852 -1.494,-17.393 2,-30 5.135,-18.531 15.218,-19.425 16,-33 0.11,-1.914 -0.018,-3.154 -7,-22 -10.685,-28.84 -14.059,-35.851 -14,-48 0.03,-6.319 0.955,-6.825 0,-10 -4.192,-13.943 -27.042,-20.886 -34,-23 -4.657,-1.415 -7.101,-1.742 -11,-4 -8.647,-5.007 -12.804,-12.767 -14,-15 -6.092,-11.373 -2.803,-20.121 -2,-44 0.748,-22.244 -1.873,-21.61 -1,-46 0.935,-26.135 3.797,-22.757 3,-35 0,0 -2.431,-37.333 -36,-72 -6.384,-6.593 -12,-11 -12,-11 -5.981,-4.694 -9.059,-6.063 -19,-13 -1.633,-1.14 -1.791,-1.271 -11,-8 -14.184,-10.364 -21.31,-15.555 -23,-16 -9.226,-2.427 -10.337,3.961 -30,7 -7.238,1.119 -16.818,2.599 -29,1 -10.771,-1.414 -15.771,-4.212 -20,-1 -4.352,3.305 -2.137,8.607 -6,16 -4.114,7.873 -10.717,9.686 -17,14 -17.295,11.875 -21.465,35.353 -23,44 -3.331,18.757 3.558,21.153 -1,42 -3.168,14.49 -6.943,15.376 -7,26 -0.086,15.941 8.389,18.631 8,34 -0.312,12.334 -5.793,11.472 -8,28 -2.115,15.838 2.375,20.689 -2,31 -3.927,9.256 -9.21,9.268 -15,17 -13.639,18.214 -7.729,49.394 4,69 4.98,8.324 12.32,14.55 27,27 19.043,16.151 31.673,26.862 51,34"
             id="path22" /></g><g
           id="g24"
           transform="translate(290,487)"><path
             d="m 0,0 c 20.815,7.687 28.81,3.626 40,14 10.639,9.863 13.849,23.212 15,28 3.7,15.388 -1.854,17.412 0,39 1.044,12.159 2.824,11.721 7,38 1.769,11.132 2.654,16.698 3,23 1.086,19.752 -2.854,24.092 -2,36 1.004,14.012 8.435,35.572 25,43 17.044,7.643 36.702,-2.841 52,-11 2.295,-1.224 13.196,-9.149 35,-25 16.513,-12.004 21.924,-16.082 27,-20 16.226,-12.525 24.339,-18.788 26,-21 18.887,-25.146 9.482,-69.067 5,-90 -0.387,-1.807 -1.444,-6.525 -2,-13 -0.417,-4.852 -1.494,-17.393 2,-30 5.135,-18.531 15.218,-19.425 16,-33 0.11,-1.914 -0.018,-3.154 -7,-22 -10.685,-28.84 -14.059,-35.851 -14,-48 0.03,-6.319 0.955,-6.825 0,-10 -4.192,-13.943 -27.042,-20.886 -34,-23 -4.657,-1.415 -7.101,-1.742 -11,-4 -8.647,-5.007 -12.804,-12.767 -14,-15 -6.092,-11.373 -2.803,-20.121 -2,-44 0.748,-22.244 -1.873,-21.61 -1,-46 0.935,-26.135 3.797,-22.757 3,-35 0,0 -2.431,-37.333 -36,-72 -6.384,-6.593 -12,-11 -12,-11 -5.981,-4.694 -9.059,-6.063 -19,-13 -1.633,-1.14 -1.791,-1.271 -11,-8 -14.184,-10.364 -21.31,-15.555 -23,-16 -9.226,-2.427 -10.337,3.961 -30,7 -7.238,1.119 -16.818,2.599 -29,1 -10.771,-1.414 -15.771,-4.212 -20,-1 -4.352,3.305 -2.137,8.607 -6,16 -4.114,7.873 -10.717,9.686 -17,14 -17.295,11.875 -21.465,35.353 -23,44 -3.331,18.757 3.558,21.153 -1,42 -3.168,14.49 -6.943,15.376 -7,26 -0.086,15.941 8.389,18.631 8,34 -0.312,12.334 -5.793,11.472 -8,28 -2.115,15.838 2.375,20.689 -2,31 -3.927,9.256 -9.21,9.268 -15,17 -13.639,18.214 -7.729,49.394 4,69 4.98,8.324 12.32,14.55 27,27 19.043,16.151 31.673,26.862 51,34 z"
             id="path26" /></g></g></g></g></svg>
