<?xml version="1.0" encoding="UTF-8" standalone="no"?>
<svg
   xmlns:dc="http://purl.org/dc/elements/1.1/"
   xmlns:cc="http://creativecommons.org/ns#"
   xmlns:rdf="http://www.w3.org/1999/02/22-rdf-syntax-ns#"
   xmlns:svg="http://www.w3.org/2000/svg"
   xmlns="http://www.w3.org/2000/svg"
   id="svg2"
   version="1.1"
   xml:space="preserve"
   width="419.64532"
   height="421.15335"
   viewBox="0 0 419.64532 421.15335"><metadata
     id="metadata8"><rdf:RDF><cc:Work
         rdf:about=""><dc:format>image/svg+xml</dc:format><dc:type
           rdf:resource="http://purl.org/dc/dcmitype/StillImage" /><dc:title></dc:title></cc:Work></rdf:RDF></metadata><defs
     id="defs6"><clipPath
       clipPathUnits="userSpaceOnUse"
       id="clipPath16"><path
         d="M 0,792 612,792 612,0 0,0 0,792 Z"
         id="path18" /></clipPath></defs><g
     id="g10"
     transform="matrix(1.25,0,0,-1.25,-251.17882,728.76917)"><g
       id="g12"><g
         id="g14"
         clip-path="url(#clipPath16)"><g
           id="g20"
           transform="translate(317.0898,443.4072)"><path
             d="m 0,0 c -1.993,-1.807 -18.359,-17.1 -19.499,-40.498 -1.754,-36.005 33.636,-68.849 56.997,-65.997 11.641,1.422 12.611,10.768 31.499,15 16.211,3.631 25.883,-0.927 31.498,5.999 2.931,3.616 0.927,5.638 3,20.999 1.685,12.485 3.253,12.96 4.5,23.999 1.036,9.177 1.779,15.76 0,23.999 -0.917,4.241 -4.511,20.882 -15,23.999 C 87.151,9.236 85.519,4.885 77.996,6 68.371,7.426 66.735,15.186 56.997,17.999 54.459,18.733 50.513,19.377 38.998,16.499 20.981,11.996 10.282,9.321 0,0 m 25.499,136.493 c 31.822,5.055 57.04,1.488 65.996,0 26.113,-4.337 66.472,-11.041 95.996,-44.998 C 207.096,68.946 220.224,36.333 218.989,9 c -0.248,-5.502 -1.353,-16.866 -3,-44.998 -1.333,-22.771 -0.953,-21.2 -1.5,-25.499 -0.565,-4.442 -2.765,-20.21 -16.499,-55.497 -7.076,-18.182 -10.614,-27.272 -13.499,-31.499 -17.424,-25.525 -44.636,-34.153 -50.998,-35.998 -10.499,-3.044 -11.199,-1.235 -38.998,-4.5 -31.037,-3.645 -34.967,-6.464 -47.997,-7.499 -47.639,-3.783 -86.411,26.652 -94.496,32.998 -17.37,13.636 -39.13,30.716 -38.998,52.498 0.043,7.107 2.415,14.392 -1.5,23.998 -4.815,11.817 -12.361,10.503 -19.499,20.999 -7.173,10.549 -3.336,17.44 -5.999,59.997 -1.237,19.752 -2.002,17.291 -1.5,20.999 2.615,19.33 15.506,27.763 35.998,55.497 14.397,19.487 10.076,18.088 17.999,26.999 26.07,29.32 64.873,35.484 86.996,38.998"
             id="path22" /></g><g
           id="g24"
           transform="translate(317.0898,443.4072)"><path
             d="m 0,0 c -1.993,-1.807 -18.359,-17.1 -19.499,-40.498 -1.754,-36.005 33.636,-68.849 56.997,-65.997 11.641,1.422 12.611,10.768 31.499,15 16.211,3.631 25.883,-0.927 31.498,5.999 2.931,3.616 0.927,5.638 3,20.999 1.685,12.485 3.253,12.96 4.5,23.999 1.036,9.177 1.779,15.76 0,23.999 -0.917,4.241 -4.511,20.882 -15,23.999 C 87.151,9.236 85.519,4.885 77.996,6 68.371,7.426 66.735,15.186 56.997,17.999 54.459,18.733 50.513,19.377 38.998,16.499 20.981,11.996 10.282,9.321 0,0 Z m 25.499,136.493 c 31.822,5.055 57.04,1.488 65.996,0 26.113,-4.337 66.472,-11.041 95.996,-44.998 C 207.096,68.946 220.224,36.333 218.989,9 c -0.248,-5.502 -1.353,-16.866 -3,-44.998 -1.333,-22.771 -0.953,-21.2 -1.5,-25.499 -0.565,-4.442 -2.765,-20.21 -16.499,-55.497 -7.076,-18.182 -10.614,-27.272 -13.499,-31.499 -17.424,-25.525 -44.636,-34.153 -50.998,-35.998 -10.499,-3.044 -11.199,-1.235 -38.998,-4.5 -31.037,-3.645 -34.967,-6.464 -47.997,-7.499 -47.639,-3.783 -86.411,26.652 -94.496,32.998 -17.37,13.636 -39.13,30.716 -38.998,52.498 0.043,7.107 2.415,14.392 -1.5,23.998 -4.815,11.817 -12.361,10.503 -19.499,20.999 -7.173,10.549 -3.336,17.44 -5.999,59.997 -1.237,19.752 -2.002,17.291 -1.5,20.999 2.615,19.33 15.506,27.763 35.998,55.497 14.397,19.487 10.076,18.088 17.999,26.999 26.07,29.32 64.873,35.484 86.996,38.998 z"
             id="path26" /></g></g></g></g></svg>
