<?xml version="1.0" encoding="UTF-8" standalone="no"?>
<svg
   xmlns:dc="http://purl.org/dc/elements/1.1/"
   xmlns:cc="http://creativecommons.org/ns#"
   xmlns:rdf="http://www.w3.org/1999/02/22-rdf-syntax-ns#"
   xmlns:svg="http://www.w3.org/2000/svg"
   xmlns="http://www.w3.org/2000/svg"
   id="svg2"
   version="1.1"
   xml:space="preserve"
   width="492.85834"
   height="445.39487"
   viewBox="0 0 492.85834 445.39487"><metadata
     id="metadata8"><rdf:RDF><cc:Work
         rdf:about=""><dc:format>image/svg+xml</dc:format><dc:type
           rdf:resource="http://purl.org/dc/dcmitype/StillImage" /><dc:title></dc:title></cc:Work></rdf:RDF></metadata><defs
     id="defs6"><clipPath
       clipPathUnits="userSpaceOnUse"
       id="clipPath16"><path
         d="M 0,792 612,792 612,0 0,0 0,792 Z"
         id="path18" /></clipPath></defs><g
     id="g10"
     transform="matrix(1.25,0,0,-1.25,-131.34522,951.73861)"><g
       id="g12"><g
         id="g14"
         clip-path="url(#clipPath16)"><g
           id="g20"
           transform="translate(144.3269,695.6898)"><path
             d="m 0,0 c -9.375,-20.192 -25.78,-33.879 -27.892,-37.69 -41.435,-74.766 48.277,-57.152 59.565,-95 17,-57 54.807,-39.868 69.435,-71 15.939,-33.922 -7.158,-63.119 12,-79 15.869,-13.155 46.695,-5.536 61,-2 15.772,3.899 35,59 70,45 79.173,-31.669 68.194,-3.38 93,31 12.388,17.169 23.148,45.571 14,69 -10.333,26.463 -64.978,44.637 -87.435,72 -27.4,33.386 24.066,37.432 -2.565,99 -11.948,27.623 -39.445,26.219 -51.435,23 -18.381,-4.934 -22.822,26.03 -60,1 -20.692,-13.931 -17.126,-71.06 -38,-57 -32.97,22.209 -30.068,42.434 -50.565,45 C 53.047,44.32 26,56 0,0"
             id="path22" /></g><g
           id="g24"
           transform="translate(144.3269,695.6898)"><path
             d="m 0,0 c -9.375,-20.192 -25.78,-33.879 -27.892,-37.69 -41.435,-74.766 48.277,-57.152 59.565,-95 17,-57 54.807,-39.868 69.435,-71 15.939,-33.922 -7.158,-63.119 12,-79 15.869,-13.155 46.695,-5.536 61,-2 15.772,3.899 35,59 70,45 79.173,-31.669 68.194,-3.38 93,31 12.388,17.169 23.148,45.571 14,69 -10.333,26.463 -64.978,44.637 -87.435,72 -27.4,33.386 24.066,37.432 -2.565,99 -11.948,27.623 -39.445,26.219 -51.435,23 -18.381,-4.934 -22.822,26.03 -60,1 -20.692,-13.931 -17.126,-71.06 -38,-57 -32.97,22.209 -30.068,42.434 -50.565,45 C 53.047,44.32 26,56 0,0 Z"
             id="path26" /></g></g></g></g></svg>
