<?xml version="1.0" encoding="UTF-8" standalone="no"?>
<svg
   xmlns:dc="http://purl.org/dc/elements/1.1/"
   xmlns:cc="http://creativecommons.org/ns#"
   xmlns:rdf="http://www.w3.org/1999/02/22-rdf-syntax-ns#"
   xmlns:svg="http://www.w3.org/2000/svg"
   xmlns="http://www.w3.org/2000/svg"
   id="svg2"
   version="1.1"
   xml:space="preserve"
   width="487.45697"
   height="651.41589"
   viewBox="0 0 487.45697 651.41589"><metadata
     id="metadata8"><rdf:RDF><cc:Work
         rdf:about=""><dc:format>image/svg+xml</dc:format><dc:type
           rdf:resource="http://purl.org/dc/dcmitype/StillImage" /><dc:title></dc:title></cc:Work></rdf:RDF></metadata><defs
     id="defs6"><clipPath
       clipPathUnits="userSpaceOnUse"
       id="clipPath16"><path
         d="M 0,792 612,792 612,0 0,0 0,792 Z"
         id="path18" /></clipPath></defs><g
     id="g10"
     transform="matrix(1.25,0,0,-1.25,-181.89552,825.17207)"><g
       id="g12"><g
         id="g14"
         clip-path="url(#clipPath16)"><g
           id="g20"
           transform="translate(256,518)"><path
             d="m 0,0 c -2.813,8.985 -10.737,21.387 -8,39 1.414,9.1 4.438,11.634 6,24 1.811,14.33 -1.365,17.932 0,29 0.304,2.466 2.453,18.249 14,31 14.142,15.618 39.825,23.865 56,15 6.415,-3.516 7.479,-7.611 14,-16 13.601,-17.497 25.928,-21.501 44,-34 7.191,-4.974 26.128,-24.983 64,-65 14.437,-15.255 14.801,-15.859 32,-34 31.109,-32.814 30.334,-31.287 33,-35 4.61,-6.42 29.143,-40.587 23,-80 -2.348,-15.065 -6.541,-13.983 -16,-42 -9.093,-26.934 -7.407,-34.421 -14,-61 -12.739,-51.36 -24.944,-47.233 -33,-89 -6.307,-32.701 -2.119,-52.304 -15,-59 -6.65,-3.457 -12.308,-0.594 -32,5 -41.342,11.743 -42.826,6.628 -70,16 -18.899,6.518 -30.921,13.386 -53,26 -59.819,34.175 -55.762,45.63 -90,58 -33.426,12.076 -55.652,7.791 -63,24 -5.04,11.118 0.635,23.681 5,33 37.648,80.379 56.472,120.569 58,123 34.343,54.643 51.618,70.865 45,92"
             id="path22" /></g><g
           id="g24"
           transform="translate(256,518)"><path
             d="m 0,0 c -2.813,8.985 -10.737,21.387 -8,39 1.414,9.1 4.438,11.634 6,24 1.811,14.33 -1.365,17.932 0,29 0.304,2.466 2.453,18.249 14,31 14.142,15.618 39.825,23.865 56,15 6.415,-3.516 7.479,-7.611 14,-16 13.601,-17.497 25.928,-21.501 44,-34 7.191,-4.974 26.128,-24.983 64,-65 14.437,-15.255 14.801,-15.859 32,-34 31.109,-32.814 30.334,-31.287 33,-35 4.61,-6.42 29.143,-40.587 23,-80 -2.348,-15.065 -6.541,-13.983 -16,-42 -9.093,-26.934 -7.407,-34.421 -14,-61 -12.739,-51.36 -24.944,-47.233 -33,-89 -6.307,-32.701 -2.119,-52.304 -15,-59 -6.65,-3.457 -12.308,-0.594 -32,5 -41.342,11.743 -42.826,6.628 -70,16 -18.899,6.518 -30.921,13.386 -53,26 -59.819,34.175 -55.762,45.63 -90,58 -33.426,12.076 -55.652,7.791 -63,24 -5.04,11.118 0.635,23.681 5,33 37.648,80.379 56.472,120.569 58,123 34.343,54.643 51.618,70.865 45,92 z"
             id="path26" /></g></g></g></g></svg>
