<?xml version="1.0" encoding="UTF-8" standalone="no"?>
<svg
   xmlns:dc="http://purl.org/dc/elements/1.1/"
   xmlns:cc="http://creativecommons.org/ns#"
   xmlns:rdf="http://www.w3.org/1999/02/22-rdf-syntax-ns#"
   xmlns:svg="http://www.w3.org/2000/svg"
   xmlns="http://www.w3.org/2000/svg"
   id="svg2"
   version="1.1"
   xml:space="preserve"
   width="709.80811"
   height="808.86621"
   viewBox="0 0 709.80811 808.86621"><metadata
     id="metadata8"><rdf:RDF><cc:Work
         rdf:about=""><dc:format>image/svg+xml</dc:format><dc:type
           rdf:resource="http://purl.org/dc/dcmitype/StillImage" /><dc:title></dc:title></cc:Work></rdf:RDF></metadata><defs
     id="defs6"><clipPath
       clipPathUnits="userSpaceOnUse"
       id="clipPath16"><path
         d="M 0,792 612,792 612,0 0,0 0,792 Z"
         id="path18" /></clipPath></defs><g
     id="g10"
     transform="matrix(1.25,0,0,-1.25,-28.576952,948.30211)"><g
       id="g12"><g
         id="g14"
         clip-path="url(#clipPath16)"><g
           id="g20"
           transform="translate(480.5817,642.8973)"><path
             d="m 0,0 c 22.375,-17.314 42.866,-0.846 70.496,-14.999 20.951,-10.732 37.324,-34.621 38.999,-56.997 0.981,-13.113 -3.808,-16.048 -4.5,-41.998 -0.477,-17.873 1.687,-20.545 1.5,-35.999 -0.12,-9.929 -0.376,-31.06 -9,-52.497 -12.272,-30.506 -30.034,-33.149 -29.998,-53.997 0.009,-5.507 4.006,-14.671 11.999,-32.999 13.198,-30.262 16.408,-29.418 17.999,-40.498 3.104,-21.617 -6.556,-42.671 -8.999,-47.997 -3.405,-7.42 -7.01,-12.704 -10.5,-23.999 -3.4,-11.005 -3.757,-18.225 -4.5,-22.499 -6.577,-37.858 -80.538,-58.447 -91.495,-61.497 -20.691,-5.759 -29.42,-3.949 -32.998,-3 -9.79,2.599 -13.697,7.436 -23.999,7.5 -8.391,0.052 -9.226,-3.135 -20.999,-6 -17.46,-4.247 -22.16,1.172 -35.998,-2.999 -13.457,-4.057 -11.146,-9.825 -22.499,-13.5 -21.189,-6.858 -34.355,11.575 -55.498,6 -11.42,-3.012 -12.511,-9.69 -23.998,-17.999 -29.905,-21.63 -81.835,-19.277 -110.995,4.5 -10.559,8.609 -15.71,18.052 -26.998,44.997 -25.46,60.773 -44.156,88.973 -41.998,116.994 0.615,7.985 3.028,26.872 7.397,46.586 3.533,15.939 5.3,23.909 7,29 3.789,11.342 6.008,14.024 5,19 -1.871,9.247 -11.639,10.388 -26,21 -4.118,3.043 -34.243,25.805 -31,47 0.9,5.878 3.811,8.008 4,16 0.258,10.883 -4.856,18.96 -6,21 -9.316,16.619 -0.975,71.226 29,105 0,0 22.276,25.098 136,53 -0.001,10e-4 9.678,13.979 22,23 14.706,10.766 23.518,7.4 33,19 4.397,5.378 5.982,10.357 7,13 8.181,21.229 37.874,42.409 59,49 52.397,16.346 125.763,-34.068 149,-84 C -14.406,19.13 -11.119,8.604 0,0"
             id="path22" /></g><g
           id="g24"
           transform="translate(480.5817,642.8973)"><path
             d="m 0,0 c 22.375,-17.314 42.866,-0.846 70.496,-14.999 20.951,-10.732 37.324,-34.621 38.999,-56.997 0.981,-13.113 -3.808,-16.048 -4.5,-41.998 -0.477,-17.873 1.687,-20.545 1.5,-35.999 -0.12,-9.929 -0.376,-31.06 -9,-52.497 -12.272,-30.506 -30.034,-33.149 -29.998,-53.997 0.009,-5.507 4.006,-14.671 11.999,-32.999 13.198,-30.262 16.408,-29.418 17.999,-40.498 3.104,-21.617 -6.556,-42.671 -8.999,-47.997 -3.405,-7.42 -7.01,-12.704 -10.5,-23.999 -3.4,-11.005 -3.757,-18.225 -4.5,-22.499 -6.577,-37.858 -80.538,-58.447 -91.495,-61.497 -20.691,-5.759 -29.42,-3.949 -32.998,-3 -9.79,2.599 -13.697,7.436 -23.999,7.5 -8.391,0.052 -9.226,-3.135 -20.999,-6 -17.46,-4.247 -22.16,1.172 -35.998,-2.999 -13.457,-4.057 -11.146,-9.825 -22.499,-13.5 -21.189,-6.858 -34.355,11.575 -55.498,6 -11.42,-3.012 -12.511,-9.69 -23.998,-17.999 -29.905,-21.63 -81.835,-19.277 -110.995,4.5 -10.559,8.609 -15.71,18.052 -26.998,44.997 -25.46,60.773 -44.156,88.973 -41.998,116.994 0.615,7.985 3.028,26.872 7.397,46.586 3.533,15.939 5.3,23.909 7,29 3.789,11.342 6.008,14.024 5,19 -1.871,9.247 -11.639,10.388 -26,21 -4.118,3.043 -34.243,25.805 -31,47 0.9,5.878 3.811,8.008 4,16 0.258,10.883 -4.856,18.96 -6,21 -9.316,16.619 -0.975,71.226 29,105 0,0 22.276,25.098 136,53 -0.001,10e-4 9.678,13.979 22,23 14.706,10.766 23.518,7.4 33,19 4.397,5.378 5.982,10.357 7,13 8.181,21.229 37.874,42.409 59,49 52.397,16.346 125.763,-34.068 149,-84 C -14.406,19.13 -11.119,8.604 0,0 Z"
             id="path26" /></g></g></g></g></svg>
