<?xml version="1.0" encoding="UTF-8" standalone="no"?>
<svg
   xmlns:dc="http://purl.org/dc/elements/1.1/"
   xmlns:cc="http://creativecommons.org/ns#"
   xmlns:rdf="http://www.w3.org/1999/02/22-rdf-syntax-ns#"
   xmlns:svg="http://www.w3.org/2000/svg"
   xmlns="http://www.w3.org/2000/svg"
   id="svg2"
   version="1.1"
   xml:space="preserve"
   width="424.51068"
   height="707.63214"
   viewBox="0 0 424.51068 707.63214"><metadata
     id="metadata8"><rdf:RDF><cc:Work
         rdf:about=""><dc:format>image/svg+xml</dc:format><dc:type
           rdf:resource="http://purl.org/dc/dcmitype/StillImage" /><dc:title></dc:title></cc:Work></rdf:RDF></metadata><defs
     id="defs6"><clipPath
       clipPathUnits="userSpaceOnUse"
       id="clipPath16"><path
         d="M 0,792 612,792 612,0 0,0 0,792 Z"
         id="path18" /></clipPath></defs><g
     id="g10"
     transform="matrix(1.25,0,0,-1.25,-189.9535,826.10867)"><g
       id="g12"><g
         id="g14"
         clip-path="url(#clipPath16)"><g
           id="g20"
           transform="translate(295,157)"><path
             d="m 0,0 c 0,0 1.476,11.214 8,22 9.322,15.412 13.316,14.429 16,23 3.424,10.932 -2.365,14.794 0,30 0.671,4.316 1.43,5.887 7,20 15.228,38.585 15.517,41.955 15,46 -1.327,10.383 -6.547,14.084 -5,25 1.086,7.665 4.663,12.923 6,15 8.251,12.821 8.468,24.577 32,105 7.091,24.233 8.243,19.007 18,27 6.341,5.195 14.376,22.102 18,30 4.706,10.256 -1.502,15.686 4,26 4.363,8.178 11.064,6.758 13,8 2.71,1.738 12,13 12,13 -0.004,-0.011 7,30 7,30 0,0 12.45,-20.825 20,-23 11.907,-3.429 19.546,-6.781 24.356,2.667 2.236,4.391 -1.304,18.323 -3.356,28.333 -0.001,0.002 -6.711,29.538 -19,39 -38.426,29.584 -21.361,31.639 -29,36 -3.322,1.896 -18.483,-4.013 -22,-6 -5.28,-2.982 -4.333,-33.333 -4.333,-33.333 0,0 -20.415,16.775 -26.667,16.333 C 55.21,477.471 42.219,469.458 25,459 10.088,449.943 2.631,445.414 -5,437 c -15.818,-17.44 -13.482,-28.785 -31,-47 -13.323,-13.853 -16.462,-9.149 -25,-21 -11.352,-15.756 -9.677,-29.447 -23,-38 -6.201,-3.981 -11.381,-4.108 -15,-5 -28.354,-6.992 -46.99,-82.23 -43,-155 3.139,-57.255 16.329,-40.821 28,-125 2.654,-19.14 6.518,-52.782 25,-59 12.059,-4.058 33,-7 33,-7 0,0 3.913,-4.223 0,-7 -10.333,-7.333 -12,-21 -12,-21 0,0 0.263,-7.584 1,-10 2.615,-8.571 28.551,-0.156 52.667,3.667 15.94,2.527 26.888,-9.498 38.333,8.333 5.403,8.418 14.408,12.175 14.333,13 -0.387,4.272 -11.615,22.571 -17.865,21.914 C 7.802,-12.42 0,0 0,0"
             id="path22" /></g><g
           id="g24"
           transform="translate(295,157)"><path
             d="m 0,0 c 0,0 1.476,11.214 8,22 9.322,15.412 13.316,14.429 16,23 3.424,10.932 -2.365,14.794 0,30 0.671,4.316 1.43,5.887 7,20 15.228,38.585 15.517,41.955 15,46 -1.327,10.383 -6.547,14.084 -5,25 1.086,7.665 4.663,12.923 6,15 8.251,12.821 8.468,24.577 32,105 7.091,24.233 8.243,19.007 18,27 6.341,5.195 14.376,22.102 18,30 4.706,10.256 -1.502,15.686 4,26 4.363,8.178 11.064,6.758 13,8 2.71,1.738 12,13 12,13 -0.004,-0.011 7,30 7,30 0,0 12.45,-20.825 20,-23 11.907,-3.429 19.546,-6.781 24.356,2.667 2.236,4.391 -1.304,18.323 -3.356,28.333 -0.001,0.002 -6.711,29.538 -19,39 -38.426,29.584 -21.361,31.639 -29,36 -3.322,1.896 -18.483,-4.013 -22,-6 -5.28,-2.982 -4.333,-33.333 -4.333,-33.333 0,0 -20.415,16.775 -26.667,16.333 C 55.21,477.471 42.219,469.458 25,459 10.088,449.943 2.631,445.414 -5,437 c -15.818,-17.44 -13.482,-28.785 -31,-47 -13.323,-13.853 -16.462,-9.149 -25,-21 -11.352,-15.756 -9.677,-29.447 -23,-38 -6.201,-3.981 -11.381,-4.108 -15,-5 -28.354,-6.992 -46.99,-82.23 -43,-155 3.139,-57.255 16.329,-40.821 28,-125 2.654,-19.14 6.518,-52.782 25,-59 12.059,-4.058 33,-7 33,-7 0,0 3.913,-4.223 0,-7 -10.333,-7.333 -12,-21 -12,-21 0,0 0.263,-7.584 1,-10 2.615,-8.571 28.551,-0.156 52.667,3.667 15.94,2.527 26.888,-9.498 38.333,8.333 5.403,8.418 14.408,12.175 14.333,13 -0.387,4.272 -11.615,22.571 -17.865,21.914 C 7.802,-12.42 0,0 0,0 Z"
             id="path26" /></g></g></g></g></svg>
