<?xml version="1.0" encoding="UTF-8" standalone="no"?>
<svg
   xmlns:dc="http://purl.org/dc/elements/1.1/"
   xmlns:cc="http://creativecommons.org/ns#"
   xmlns:rdf="http://www.w3.org/1999/02/22-rdf-syntax-ns#"
   xmlns:svg="http://www.w3.org/2000/svg"
   xmlns="http://www.w3.org/2000/svg"
   xmlns:xlink="http://www.w3.org/1999/xlink"
   height="346.47867"
   width="398.01187"
   xml:space="preserve"
   viewBox="85 -75.11 398.01187 346.47867"
   y="0px"
   x="0px"
   id="svg2"
   version="1.1"><metadata
     id="metadata22"><rdf:RDF><cc:Work
         rdf:about=""><dc:format>image/svg+xml</dc:format><dc:type
           rdf:resource="http://purl.org/dc/dcmitype/StillImage" /><dc:title></dc:title></cc:Work></rdf:RDF></metadata><defs
     id="defs20" /><g
     transform="matrix(1.25,0,0,-1.25,-235.83617,540.53974)"
     id="g10"><g
       id="g12"><g
         id="g5"><defs
           id="defs7"><rect
             height="990"
             width="765"
             y="-38.911999"
             x="-8.5"
             id="SVGID_1_" /></defs><clipPath
           id="SVGID_2_"><use
             height="100%"
             width="100%"
             y="0"
             x="0"
             id="use11"
             style="overflow:visible"
             xlink:href="#SVGID_1_" /></clipPath><g
           clip-path="url(#SVGID_2_)"
           id="g14"><g
             transform="translate(266,342)"
             id="g20"><path
               d="m 68,60.088 c 8.52,17.27 0.05,36.33 5.33,38.67 2.58,1.14 5.71,-2.88 8,-1.33 2.51,1.7 -0.44,7.11 0.67,12 2.15,9.55 19.69,16.72 35.33,16 18.52,-0.85 24.8,-12.31 34.67,-8 8.98,3.92 5.47,14.15 15.33,20.67 11.22,7.42 20.03,-2.99 40.67,2 13.36,3.23 13.27,8.47 26,10 3.96,0.48 22.83,2.25 30,-8 5.82,-8.32 -2.58,-15.29 1.33,-27.33 5.3,-16.3 23.8,-13.13 34.67,-30.68 3.99,-6.45 2.06,-7.77 5.33,-42.67 3.06,-32.6 5.11,-35.18 2.67,-46 -1.39,-6.17 -4.97,-22.06 -18,-33.33 -7.31,-6.33 -10.27,-4.85 -14,-10 -9.69,-13.36 6.53,-28.4 0,-43.33 -5.72,-13.09 -20.53,-6.89 -62.67,-27.33 -11.57,-5.61 -15.78,-8.67 -23.33,-8 -12.94,1.15 -15.14,11.41 -35.33,22 -8.9,4.67 -20.04,10.34 -33.33,8.67 -10.99,-1.38 -10.95,-6.2 -21.33,-8 -16.96,-2.94 -36.01,6.65 -46,20 -6.73,9 -2.81,10.97 -10.67,22.67 -10.42,15.52 -18.95,14.51 -25.33,27.33 -5.72,11.51 0.07,14.5 -4.67,28.67 -7.11,21.26 -22.82,22.43 -22.67,34.67 0.19,15.76 26.57,34.76 45.33,30.65 10.41,-2.28 17.58,-11.46 25.33,-8 3.42,1.53 5.01,4.65 6.67,8"
               id="path22" /></g><g
             transform="translate(266,342)"
             id="g24"><path
               d="m 68,60.088 c 8.52,17.27 0.05,36.33 5.33,38.67 2.58,1.14 5.71,-2.88 8,-1.33 2.51,1.7 -0.44,7.11 0.67,12 2.15,9.55 19.69,16.72 35.33,16 18.52,-0.85 24.8,-12.31 34.67,-8 8.98,3.92 5.47,14.15 15.33,20.67 11.22,7.42 20.03,-2.99 40.67,2 13.36,3.23 13.27,8.47 26,10 3.96,0.48 22.83,2.25 30,-8 5.82,-8.32 -2.58,-15.29 1.33,-27.33 5.3,-16.3 23.8,-13.13 34.67,-30.68 3.99,-6.45 2.06,-7.77 5.33,-42.67 3.06,-32.6 5.11,-35.18 2.67,-46 -1.39,-6.17 -4.97,-22.06 -18,-33.33 -7.31,-6.33 -10.27,-4.85 -14,-10 -9.69,-13.36 6.53,-28.4 0,-43.33 -5.72,-13.09 -20.53,-6.89 -62.67,-27.33 -11.57,-5.61 -15.78,-8.67 -23.33,-8 -12.94,1.15 -15.14,11.41 -35.33,22 -8.9,4.67 -20.04,10.34 -33.33,8.67 -10.99,-1.38 -10.95,-6.2 -21.33,-8 -16.96,-2.94 -36.01,6.65 -46,20 -6.73,9 -2.81,10.97 -10.67,22.67 -10.42,15.52 -18.95,14.51 -25.33,27.33 -5.72,11.51 0.07,14.5 -4.67,28.67 -7.11,21.26 -22.82,22.43 -22.67,34.67 0.19,15.76 26.57,34.76 45.33,30.65 10.41,-2.28 17.58,-11.46 25.33,-8 3.42,1.53 5.01,4.65 6.67,8 z"
               id="path26" /></g></g></g></g></g></svg>