<?xml version="1.0" encoding="UTF-8" standalone="no"?>
<svg
   xmlns:dc="http://purl.org/dc/elements/1.1/"
   xmlns:cc="http://creativecommons.org/ns#"
   xmlns:rdf="http://www.w3.org/1999/02/22-rdf-syntax-ns#"
   xmlns:svg="http://www.w3.org/2000/svg"
   xmlns="http://www.w3.org/2000/svg"
   id="svg2"
   version="1.1"
   xml:space="preserve"
   width="513.69934"
   height="517.36829"
   viewBox="0 0 513.69934 517.36829"><metadata
     id="metadata24"><rdf:RDF><cc:Work
         rdf:about=""><dc:format>image/svg+xml</dc:format><dc:type
           rdf:resource="http://purl.org/dc/dcmitype/StillImage" /><dc:title></dc:title></cc:Work></rdf:RDF></metadata><defs
     id="defs4"><clipPath
       id="clipPath6"
       clipPathUnits="userSpaceOnUse"><path
         id="path8"
         d="M 0,792 612,792 612,0 0,0 0,792 Z" /></clipPath></defs><g
     id="g10"
     transform="matrix(1.25,0,0,-1.25,-132.31013,724.10769)"><g
       id="g12"
       clip-path="url(#clipPath16)"><g
         id="g14"
         transform="translate(194.5,569)"><path
           style="fill:#000000"
           id="path16"
           d="M 0,0 C 15.3,5.5 32.5,11.7 50.5,10 52.7,9.8 62.5,6.5 82,0 c 21.1,-7.1 31.7,-10.6 32.5,-11 16.3,-8.3 25.2,-20.3 43,-44 12.4,-16.6 9.3,-15.9 21.5,-31.5 9.5,-12.2 15,-17.2 18,-27.5 2.9,-9.9 1.5,-18.2 0,-26.5 -5.3,-29.7 -23.1,-49.4 -26.5,-69 -0.7,-4.3 -0.5,-6.8 -2,-14.5 -1.4,-7.4 -2.7,-10.5 -1,-13.5 2.1,-3.5 6.8,-4.1 9,-4.5 13,-2.5 16.4,-13.6 27.5,-22.5 6.9,-5.5 9.3,-4.3 36.2,-12.5 24.5,-7.4 36.8,-11.1 45.3,-16 11.8,-6.7 34.9,-19.8 36.7,-41.3 1.7,-20.6 -17.1,-38.5 -31.3,-46 -11.3,-5.9 -14.1,-2.2 -38,-9.3 -27.7,-8.2 -25.8,-13.8 -38.7,-14 -15.1,-0.3 -17.5,7.4 -53.3,18 -13,3.9 -11.8,2.6 -19.3,5.3 -11.7,4.2 -30.5,11.1 -44,27.3 -12,14.4 -12.5,27.4 -26.7,32.7 -4.7,1.7 -5.1,0.5 -8.7,2 -17.6,7.4 -23.3,43.9 -16,73.3 4,16.1 7.2,11.5 12.7,30.7 6.7,23.8 1.5,30.1 6,65.3 0.7,5.2 1.6,11.6 -0.7,19.3 -2.3,7.9 -8,17.3 -8,17.3 0,0 -14.2,-6.4 -22.7,-9.3 -2.9,-1 -17.5,-5.9 -33.3,-5.3 -14.5,0.6 -13.8,5.1 -58,24.7 -10.2,4.5 -17.4,7.4 -23.3,15.3 -4.8,6.5 -10.3,18.3 -6,25.3 2.1,3.4 5.2,3.8 6.7,8 1.6,4.7 -0.6,8.9 -1.3,11.3 -4,12.7 11.5,37.4 29.3,41.3 13.4,2.9 19.6,-7.8 38.7,-4 4.8,1 4.7,1.7 13.8,5" /></g><g
         id="g18"
         transform="translate(194.5,569)"><path
           id="path20"
           d="M 0,0 C 15.3,5.5 32.5,11.7 50.5,10 52.7,9.8 62.5,6.5 82,0 c 21.1,-7.1 31.7,-10.6 32.5,-11 16.3,-8.3 25.2,-20.3 43,-44 12.4,-16.6 9.3,-15.9 21.5,-31.5 9.5,-12.2 15,-17.2 18,-27.5 2.9,-9.9 1.5,-18.2 0,-26.5 -5.3,-29.7 -23.1,-49.4 -26.5,-69 -0.7,-4.3 -0.5,-6.8 -2,-14.5 -1.4,-7.4 -2.7,-10.5 -1,-13.5 2.1,-3.5 6.8,-4.1 9,-4.5 13,-2.5 16.4,-13.6 27.5,-22.5 6.9,-5.5 9.3,-4.3 36.2,-12.5 24.5,-7.4 36.8,-11.1 45.3,-16 11.8,-6.7 34.9,-19.8 36.7,-41.3 1.7,-20.6 -17.1,-38.5 -31.3,-46 -11.3,-5.9 -14.1,-2.2 -38,-9.3 -27.7,-8.2 -25.8,-13.8 -38.7,-14 -15.1,-0.3 -17.5,7.4 -53.3,18 -13,3.9 -11.8,2.6 -19.3,5.3 -11.7,4.2 -30.5,11.1 -44,27.3 -12,14.4 -12.5,27.4 -26.7,32.7 -4.7,1.7 -5.1,0.5 -8.7,2 -17.6,7.4 -23.3,43.9 -16,73.3 4,16.1 7.2,11.5 12.7,30.7 6.7,23.8 1.5,30.1 6,65.3 0.7,5.2 1.6,11.6 -0.7,19.3 -2.3,7.9 -8,17.3 -8,17.3 0,0 -14.2,-6.4 -22.7,-9.3 -2.9,-1 -17.5,-5.9 -33.3,-5.3 -14.5,0.6 -13.8,5.1 -58,24.7 -10.2,4.5 -17.4,7.4 -23.3,15.3 -4.8,6.5 -10.3,18.3 -6,25.3 2.1,3.4 5.2,3.8 6.7,8 1.6,4.7 -0.6,8.9 -1.3,11.3 -4,12.7 11.5,37.4 29.3,41.3 13.4,2.9 19.6,-7.8 38.7,-4 4.8,1 4.7,1.7 13.8,5 z" /></g></g></g></svg>