<?xml version="1.0" encoding="UTF-8" standalone="no"?>
<svg
   xmlns:dc="http://purl.org/dc/elements/1.1/"
   xmlns:cc="http://creativecommons.org/ns#"
   xmlns:rdf="http://www.w3.org/1999/02/22-rdf-syntax-ns#"
   xmlns:svg="http://www.w3.org/2000/svg"
   xmlns="http://www.w3.org/2000/svg"
   id="svg2"
   version="1.1"
   xml:space="preserve"
   width="559.1145"
   height="421.59668"
   viewBox="0 0 559.1145 421.59668"><metadata
     id="metadata8"><rdf:RDF><cc:Work
         rdf:about=""><dc:format>image/svg+xml</dc:format><dc:type
           rdf:resource="http://purl.org/dc/dcmitype/StillImage" /><dc:title></dc:title></cc:Work></rdf:RDF></metadata><defs
     id="defs6"><clipPath
       clipPathUnits="userSpaceOnUse"
       id="clipPath16"><path
         d="M 0,792 612,792 612,0 0,0 0,792 Z"
         id="path18" /></clipPath></defs><g
     id="g10"
     transform="matrix(1.25,0,0,-1.25,-97.151718,845.60803)"><g
       id="g12"><g
         id="g14"
         clip-path="url(#clipPath16)"><g
           id="g20"
           transform="translate(150,587)"><path
             d="m 0,0 c -11.689,-11.864 -19.936,-12.353 -25,-24 -1.004,-2.309 -4.937,-11.355 -2,-21 3.942,-12.947 16.108,-13.334 23,-25 7.112,-12.039 3.915,-28.148 0,-37 -13.405,-30.308 -56.304,-23.219 -66,-49 -6.156,-16.369 5.348,-34.619 10,-42 22.84,-36.235 70.189,-43.803 99,-48 76.875,-11.197 77.416,54.261 153,41 16.206,-2.843 47.081,-42.991 76,-39 18.908,2.609 47.588,6.568 61,27 10.987,16.738 0.475,27.39 4,69 2.802,33.07 10.047,33.485 15,72 2.978,23.158 63,46 -8,79 -12.337,5.734 -29.123,26.072 -52,29 -20.551,2.631 -31.959,-18.227 -39,0 -8.897,23.03 1.689,35.416 -9,47 -11.069,11.995 -35.986,13.417 -50,3 -12.273,-9.122 -14.515,-26.081 -19,-60 -3.546,-26.821 -1.106,-33.763 -8,-40 -12.426,-11.243 -38.568,-5.167 -55,4 C 90.597,-4.292 92.682,4.087 73,17 66.029,21.573 38.763,39.463 21,30 10.482,24.397 15.444,15.674 0,0"
             id="path22" /></g><g
           id="g24"
           transform="translate(150,587)"><path
             d="m 0,0 c -11.689,-11.864 -19.936,-12.353 -25,-24 -1.004,-2.309 -4.937,-11.355 -2,-21 3.942,-12.947 16.108,-13.334 23,-25 7.112,-12.039 3.915,-28.148 0,-37 -13.405,-30.308 -56.304,-23.219 -66,-49 -6.156,-16.369 5.348,-34.619 10,-42 22.84,-36.235 70.189,-43.803 99,-48 76.875,-11.197 77.416,54.261 153,41 16.206,-2.843 47.081,-42.991 76,-39 18.908,2.609 47.588,6.568 61,27 10.987,16.738 0.475,27.39 4,69 2.802,33.07 10.047,33.485 15,72 2.978,23.158 63,46 -8,79 -12.337,5.734 -29.123,26.072 -52,29 -20.551,2.631 -31.959,-18.227 -39,0 -8.897,23.03 1.689,35.416 -9,47 -11.069,11.995 -35.986,13.417 -50,3 -12.273,-9.122 -14.515,-26.081 -19,-60 -3.546,-26.821 -1.106,-33.763 -8,-40 -12.426,-11.243 -38.568,-5.167 -55,4 C 90.597,-4.292 92.682,4.087 73,17 66.029,21.573 38.763,39.463 21,30 10.482,24.397 15.444,15.674 0,0 Z"
             id="path26" /></g></g></g></g></svg>
