<?xml version="1.0" encoding="UTF-8" standalone="no"?>
<svg
   xmlns:dc="http://purl.org/dc/elements/1.1/"
   xmlns:cc="http://creativecommons.org/ns#"
   xmlns:rdf="http://www.w3.org/1999/02/22-rdf-syntax-ns#"
   xmlns:svg="http://www.w3.org/2000/svg"
   xmlns="http://www.w3.org/2000/svg"
   id="svg2"
   version="1.1"
   xml:space="preserve"
   width="599.43445"
   height="666.23553"
   viewBox="0 0 599.43445 666.23553"><metadata
     id="metadata8"><rdf:RDF><cc:Work
         rdf:about=""><dc:format>image/svg+xml</dc:format><dc:type
           rdf:resource="http://purl.org/dc/dcmitype/StillImage" /><dc:title></dc:title></cc:Work></rdf:RDF></metadata><defs
     id="defs6"><clipPath
       clipPathUnits="userSpaceOnUse"
       id="clipPath16"><path
         d="M 0,792 612,792 612,0 0,0 0,792 Z"
         id="path18" /></clipPath></defs><g
     id="g10"
     transform="matrix(1.25,0,0,-1.25,-69.374845,854.13027)"><g
       id="g12"><g
         id="g14"
         clip-path="url(#clipPath16)"><g
           id="g20"
           transform="translate(288,588)"><path
             d="m 0,0 c 3.013,-1.794 10.991,-6.398 19,-4 5.303,1.588 6.876,5.125 12,10 12.178,11.585 27.151,14.302 31,15 6.084,1.104 17.003,3.085 28,-2 15.774,-7.294 22.562,-24.896 28,-39 4.075,-10.569 2.013,-9.833 5,-15 7.389,-12.781 17.312,-12.614 37,-30 2.564,-2.264 4.508,-4.132 8,-6 9.254,-4.95 17.594,-3.595 23,-4 12.866,-0.965 21.839,-12.857 31,-25 14.026,-18.592 36.345,-62.662 17,-93 -13.151,-20.624 -40.963,-27.701 -50,-30 -13.866,-3.528 -21.833,-2.217 -42,-9 -12.812,-4.309 -20.428,-6.962 -28,-14 -10.457,-9.719 -8.934,-16.743 -19,-26 -8.634,-7.941 -12.609,-5.398 -28,-13 -5.136,-2.537 -30.448,-15.542 -45,-41 -5.097,-8.917 -4.972,-12.534 -9,-23 -17.403,-45.212 -58.22,-77.667 -91,-86 -9.733,-2.474 -16.854,-2.338 -21,-2 -18.41,1.5 -31.177,11.299 -36,15 -30.688,23.551 -50.079,82.004 -30,117 7.745,13.499 11.63,19.854 15,37 2.003,10.191 0.571,16.411 0,30 -0.735,17.482 10.704,20.429 6,31 -9.694,21.781 -35.756,47.114 -61,56.333 -6.431,2.349 -16.063,1.029 -23.333,8 -5.296,5.078 -8.643,12.985 -8.667,20.667 -0.018,5.879 1.914,10.218 2.667,12 3.882,9.189 2.682,12.589 8,54 3.556,27.693 5.388,41.642 8,46.667 5.951,11.447 12.283,15.576 16,30 2.917,11.321 0.409,14.185 4.666,20.666 5.572,8.483 12.469,7.536 22,18.667 4.458,5.206 3.884,6.504 8,12 0.864,1.153 10.538,13.791 25.334,20 18.907,7.934 25.533,-3.294 60.666,-4.667 3.345,-0.13 9.821,-0.284 13.334,-4.666 3.497,-4.363 1.017,-9.123 4,-14 3.541,-5.791 10.936,-5.46 16.666,-7.334 C -20.752,54.167 -26.712,15.905 0,0"
             id="path22" /></g><g
           id="g24"
           transform="translate(288,588)"><path
             d="m 0,0 c 3.013,-1.794 10.991,-6.398 19,-4 5.303,1.588 6.876,5.125 12,10 12.178,11.585 27.151,14.302 31,15 6.084,1.104 17.003,3.085 28,-2 15.774,-7.294 22.562,-24.896 28,-39 4.075,-10.569 2.013,-9.833 5,-15 7.389,-12.781 17.312,-12.614 37,-30 2.564,-2.264 4.508,-4.132 8,-6 9.254,-4.95 17.594,-3.595 23,-4 12.866,-0.965 21.839,-12.857 31,-25 14.026,-18.592 36.345,-62.662 17,-93 -13.151,-20.624 -40.963,-27.701 -50,-30 -13.866,-3.528 -21.833,-2.217 -42,-9 -12.812,-4.309 -20.428,-6.962 -28,-14 -10.457,-9.719 -8.934,-16.743 -19,-26 -8.634,-7.941 -12.609,-5.398 -28,-13 -5.136,-2.537 -30.448,-15.542 -45,-41 -5.097,-8.917 -4.972,-12.534 -9,-23 -17.403,-45.212 -58.22,-77.667 -91,-86 -9.733,-2.474 -16.854,-2.338 -21,-2 -18.41,1.5 -31.177,11.299 -36,15 -30.688,23.551 -50.079,82.004 -30,117 7.745,13.499 11.63,19.854 15,37 2.003,10.191 0.571,16.411 0,30 -0.735,17.482 10.704,20.429 6,31 -9.694,21.781 -35.756,47.114 -61,56.333 -6.431,2.349 -16.063,1.029 -23.333,8 -5.296,5.078 -8.643,12.985 -8.667,20.667 -0.018,5.879 1.914,10.218 2.667,12 3.882,9.189 2.682,12.589 8,54 3.556,27.693 5.388,41.642 8,46.667 5.951,11.447 12.283,15.576 16,30 2.917,11.321 0.409,14.185 4.666,20.666 5.572,8.483 12.469,7.536 22,18.667 4.458,5.206 3.884,6.504 8,12 0.864,1.153 10.538,13.791 25.334,20 18.907,7.934 25.533,-3.294 60.666,-4.667 3.345,-0.13 9.821,-0.284 13.334,-4.666 3.497,-4.363 1.017,-9.123 4,-14 3.541,-5.791 10.936,-5.46 16.666,-7.334 C -20.752,54.167 -26.712,15.905 0,0 Z"
             id="path26" /></g></g></g></g></svg>
