<?xml version="1.0" encoding="UTF-8" standalone="no"?>
<svg
   xmlns:dc="http://purl.org/dc/elements/1.1/"
   xmlns:cc="http://creativecommons.org/ns#"
   xmlns:rdf="http://www.w3.org/1999/02/22-rdf-syntax-ns#"
   xmlns:svg="http://www.w3.org/2000/svg"
   xmlns="http://www.w3.org/2000/svg"
   id="svg2"
   version="1.1"
   xml:space="preserve"
   width="562.35638"
   height="636.09583"
   viewBox="0 0 562.35638 636.09583"><metadata
     id="metadata8"><rdf:RDF><cc:Work
         rdf:about=""><dc:format>image/svg+xml</dc:format><dc:type
           rdf:resource="http://purl.org/dc/dcmitype/StillImage" /><dc:title></dc:title></cc:Work></rdf:RDF></metadata><defs
     id="defs6"><clipPath
       clipPathUnits="userSpaceOnUse"
       id="clipPath16"><path
         d="M 0,792 612,792 612,0 0,0 0,792 Z"
         id="path18" /></clipPath></defs><g
     id="g10"
     transform="matrix(1.25,0,0,-1.25,-133.09267,798.09935)"><g
       id="g12"><g
         id="g14"
         clip-path="url(#clipPath16)"><g
           id="g20"
           transform="translate(258,614)"><path
             d="m 0,0 c 8.241,0.506 9.922,3.018 19,3 11.95,-0.024 13.305,-4.385 23,-4 6.746,0.268 8.597,2.479 24,9 11.973,5.069 17.96,7.603 24,9 7.115,1.645 28.245,6.531 40,-4 7.97,-7.14 2.825,-13.477 10,-21 7.197,-7.546 14.755,-3.665 63,-3 5.749,0.079 12.966,0.125 21,4 9.05,4.365 10.602,9.471 17,14 11.679,8.267 33.28,10.202 46,-1 15.828,-13.939 12.125,-43.127 3,-52 -1.351,-1.314 -4.313,-3.633 -6,-8 -2.759,-7.142 1.374,-10.751 -1,-15 -3.572,-6.394 -14.643,-1.291 -23,-9 -4.515,-4.165 -1.881,-6.206 -7,-13 -7.828,-10.389 -16.571,-9.044 -19,-17 -1.758,-5.758 2.27,-8.265 0,-13 -2.996,-6.248 -11.464,-4.91 -18,-9 -11.296,-7.068 -9.563,-25.803 -11,-41 -2.947,-31.177 -17.813,-32.454 -25,-61 -10.988,-43.644 9.747,-96.325 29,-126 6.461,-9.958 16.375,-22.905 19,-43 0.795,-6.084 3.632,-27.806 -9,-42 -6.493,-7.295 -10.106,-4.775 -22,-14 -17.031,-13.209 -15.169,-22.678 -25,-26 -13.358,-4.513 -29.419,8.706 -48,24 -20.479,16.857 -17.815,21.45 -34,31 -12.387,7.309 -16.403,6.067 -35,17 -10.448,6.142 -12.488,8.479 -22,13 -11.034,5.245 -20.516,9.617 -31,8 -9.309,-1.436 -13.793,-6.728 -20,-11 -25.041,-17.236 -70.845,-12.871 -93,10 -9.233,9.532 -13.792,21.692 -15,25 -4.186,11.463 -4.618,21.296 -5,30 -0.517,11.783 -0.776,17.675 1,23 5.701,17.098 21.616,14.775 36,34 11.895,15.899 12.916,33.399 13,39 0.132,8.791 -1.652,14.191 -7,31 -10.652,33.481 -15.978,50.222 -17,54 -8.869,32.783 -7.385,45.408 -20,55 -7.467,5.677 -10.625,3.26 -15,9 -8.611,11.296 1.204,23.824 -6,47 -2.793,8.987 -4.687,8.446 -5,14 -0.178,3.154 -0.04,11.703 19,36 7.073,9.026 10.609,13.539 13,15 5.274,3.223 13.388,5.717 50,-3 21.582,-5.138 32.373,-7.708 41,-11 10.571,-4.034 17.334,-7.655 28,-7"
             id="path22" /></g><g
           id="g24"
           transform="translate(258,614)"><path
             d="m 0,0 c 8.241,0.506 9.922,3.018 19,3 11.95,-0.024 13.305,-4.385 23,-4 6.746,0.268 8.597,2.479 24,9 11.973,5.069 17.96,7.603 24,9 7.115,1.645 28.245,6.531 40,-4 7.97,-7.14 2.825,-13.477 10,-21 7.197,-7.546 14.755,-3.665 63,-3 5.749,0.079 12.966,0.125 21,4 9.05,4.365 10.602,9.471 17,14 11.679,8.267 33.28,10.202 46,-1 15.828,-13.939 12.125,-43.127 3,-52 -1.351,-1.314 -4.313,-3.633 -6,-8 -2.759,-7.142 1.374,-10.751 -1,-15 -3.572,-6.394 -14.643,-1.291 -23,-9 -4.515,-4.165 -1.881,-6.206 -7,-13 -7.828,-10.389 -16.571,-9.044 -19,-17 -1.758,-5.758 2.27,-8.265 0,-13 -2.996,-6.248 -11.464,-4.91 -18,-9 -11.296,-7.068 -9.563,-25.803 -11,-41 -2.947,-31.177 -17.813,-32.454 -25,-61 -10.988,-43.644 9.747,-96.325 29,-126 6.461,-9.958 16.375,-22.905 19,-43 0.795,-6.084 3.632,-27.806 -9,-42 -6.493,-7.295 -10.106,-4.775 -22,-14 -17.031,-13.209 -15.169,-22.678 -25,-26 -13.358,-4.513 -29.419,8.706 -48,24 -20.479,16.857 -17.815,21.45 -34,31 -12.387,7.309 -16.403,6.067 -35,17 -10.448,6.142 -12.488,8.479 -22,13 -11.034,5.245 -20.516,9.617 -31,8 -9.309,-1.436 -13.793,-6.728 -20,-11 -25.041,-17.236 -70.845,-12.871 -93,10 -9.233,9.532 -13.792,21.692 -15,25 -4.186,11.463 -4.618,21.296 -5,30 -0.517,11.783 -0.776,17.675 1,23 5.701,17.098 21.616,14.775 36,34 11.895,15.899 12.916,33.399 13,39 0.132,8.791 -1.652,14.191 -7,31 -10.652,33.481 -15.978,50.222 -17,54 -8.869,32.783 -7.385,45.408 -20,55 -7.467,5.677 -10.625,3.26 -15,9 -8.611,11.296 1.204,23.824 -6,47 -2.793,8.987 -4.687,8.446 -5,14 -0.178,3.154 -0.04,11.703 19,36 7.073,9.026 10.609,13.539 13,15 5.274,3.223 13.388,5.717 50,-3 21.582,-5.138 32.373,-7.708 41,-11 10.571,-4.034 17.334,-7.655 28,-7 z"
             id="path26" /></g></g></g></g></svg>
