<?xml version="1.0" encoding="UTF-8" standalone="no"?>
<svg
   xmlns:dc="http://purl.org/dc/elements/1.1/"
   xmlns:cc="http://creativecommons.org/ns#"
   xmlns:rdf="http://www.w3.org/1999/02/22-rdf-syntax-ns#"
   xmlns:svg="http://www.w3.org/2000/svg"
   xmlns="http://www.w3.org/2000/svg"
   id="svg2"
   version="1.1"
   xml:space="preserve"
   width="494.60464"
   height="394.14307"
   viewBox="0 0 494.60464 394.14307"><metadata
     id="metadata8"><rdf:RDF><cc:Work
         rdf:about=""><dc:format>image/svg+xml</dc:format><dc:type
           rdf:resource="http://purl.org/dc/dcmitype/StillImage" /><dc:title></dc:title></cc:Work></rdf:RDF></metadata><defs
     id="defs6"><clipPath
       clipPathUnits="userSpaceOnUse"
       id="clipPath16"><path
         d="M 0,792 612,792 612,0 0,0 0,792 Z"
         id="path18" /></clipPath></defs><g
     id="g10"
     transform="matrix(1.25,0,0,-1.25,-226.87159,595.20773)"><g
       id="g12"><g
         id="g14"
         clip-path="url(#clipPath16)"><g
           id="g20"
           transform="translate(421,475)"><path
             d="m 0,0 c 9.513,-3.021 14.001,-14.455 15,-17 3.703,-9.433 -0.277,-12.695 1,-28 0.491,-5.886 1.761,-19.338 10,-32 1.955,-3.004 5.114,-7.213 13,-14 7.736,-6.659 22.283,-17.747 60,-34 13.329,-5.744 16.094,-6.333 25,-11 17.895,-9.377 28.34,-14.85 31,-24 3.732,-12.837 -8.492,-30.721 -23,-40 -23.55,-15.062 -60.788,-12.356 -94,-18 -2.865,-0.487 -8.5,-1.524 -12,-6 -2.797,-3.577 -2.936,-7.694 -3,-19 -0.067,-11.725 -0.1,-17.587 0,-19 2.358,-33.208 9.402,-43.583 4,-49 -7.401,-7.422 -30.1,2.549 -40,8 -20.524,11.301 -25.174,24.721 -39,24 -5.945,-0.31 -4.897,-2.782 -20,-8 -12.288,-4.246 -21.208,-7.328 -30,-5 -8.392,2.222 -11.656,8.047 -19,16 -3.173,3.436 -25.14,26.797 -47,31 -26.748,5.143 -42.218,-20.535 -53,-13 -11.559,8.078 -7.772,47.366 13,66 8.052,7.224 14.933,8.002 19,17 4.769,10.551 3.074,26.657 -6,36 -10.606,10.92 -23.913,5.003 -37,19 -4.099,4.384 -7.107,7.602 -7,12 0.442,18.087 53,33.001 53,33 -0.001,0 5.485,14.448 13,20 10.065,7.437 19.747,-4.059 37,-2 23.815,2.843 24.743,27.059 54,35 15.928,4.323 16.207,-2.703 34,2 25.999,6.873 34.514,24.284 48,20"
             id="path22" /></g><g
           id="g24"
           transform="translate(421,475)"><path
             d="m 0,0 c 9.513,-3.021 14.001,-14.455 15,-17 3.703,-9.433 -0.277,-12.695 1,-28 0.491,-5.886 1.761,-19.338 10,-32 1.955,-3.004 5.114,-7.213 13,-14 7.736,-6.659 22.283,-17.747 60,-34 13.329,-5.744 16.094,-6.333 25,-11 17.895,-9.377 28.34,-14.85 31,-24 3.732,-12.837 -8.492,-30.721 -23,-40 -23.55,-15.062 -60.788,-12.356 -94,-18 -2.865,-0.487 -8.5,-1.524 -12,-6 -2.797,-3.577 -2.936,-7.694 -3,-19 -0.067,-11.725 -0.1,-17.587 0,-19 2.358,-33.208 9.402,-43.583 4,-49 -7.401,-7.422 -30.1,2.549 -40,8 -20.524,11.301 -25.174,24.721 -39,24 -5.945,-0.31 -4.897,-2.782 -20,-8 -12.288,-4.246 -21.208,-7.328 -30,-5 -8.392,2.222 -11.656,8.047 -19,16 -3.173,3.436 -25.14,26.797 -47,31 -26.748,5.143 -42.218,-20.535 -53,-13 -11.559,8.078 -7.772,47.366 13,66 8.052,7.224 14.933,8.002 19,17 4.769,10.551 3.074,26.657 -6,36 -10.606,10.92 -23.913,5.003 -37,19 -4.099,4.384 -7.107,7.602 -7,12 0.442,18.087 53,33.001 53,33 -0.001,0 5.485,14.448 13,20 10.065,7.437 19.747,-4.059 37,-2 23.815,2.843 24.743,27.059 54,35 15.928,4.323 16.207,-2.703 34,2 25.999,6.873 34.514,24.284 48,20 z"
             id="path26" /></g></g></g></g></svg>
