<?xml version="1.0" encoding="UTF-8" standalone="no"?>
<svg
   xmlns:dc="http://purl.org/dc/elements/1.1/"
   xmlns:cc="http://creativecommons.org/ns#"
   xmlns:rdf="http://www.w3.org/1999/02/22-rdf-syntax-ns#"
   xmlns:svg="http://www.w3.org/2000/svg"
   xmlns="http://www.w3.org/2000/svg"
   id="svg2"
   version="1.1"
   xml:space="preserve"
   width="589.77716"
   height="578.76819"
   viewBox="0 0 589.77716 578.76819"><metadata
     id="metadata8"><rdf:RDF><cc:Work
         rdf:about=""><dc:format>image/svg+xml</dc:format><dc:type
           rdf:resource="http://purl.org/dc/dcmitype/StillImage" /><dc:title></dc:title></cc:Work></rdf:RDF></metadata><defs
     id="defs6"><clipPath
       clipPathUnits="userSpaceOnUse"
       id="clipPath16"><path
         d="M 0,792 612,792 612,0 0,0 0,792 Z"
         id="path18" /></clipPath></defs><g
     id="g10"
     transform="matrix(1.25,0,0,-1.25,-88.776391,926.88103)"><g
       id="g12"><g
         id="g14"
         clip-path="url(#clipPath16)"><g
           id="g20"
           transform="translate(396.98,560)"><path
             d="m 0,0 c 7.608,-5.231 15.385,-10.91 26.5,-10 8.535,0.699 10.173,3.547 19,3 5.869,-0.364 32.39,-7.228 37,-9 12.542,-4.821 20.079,-14.828 30,-28 4.525,-6.008 23.332,-23.41 22.853,-29.333 -0.58,-7.184 -11.54,-19.089 -0.76,-36.233 0.937,-1.491 4.213,-0.77 6.407,-2.934 3.571,-3.522 2.373,-9.224 2,-11 -0.854,-4.065 -2.435,-4.075 -3.5,-7.5 -2.11,-6.785 14.187,-22.667 0,-31.5 -3.733,-2.324 -6.079,-17.986 -8,-25.5 -0.424,-1.658 -14.132,-31.209 -15,-35 -0.737,-3.215 -8.624,-10.772 -10,-13.5 -1.391,-2.758 -4.71,-7.581 -8.5,-9.5 -2.734,-1.385 -4.162,-3.163 -5,-4 -7.584,-7.574 -30.858,-1.956 -48.5,-13 -3.362,-2.105 -6.984,-5.105 -14,-8 -4.806,-1.983 -28.462,0.183 -36.5,4.5 -3.051,1.639 -23.066,1.549 -25,1.5 -3.538,-0.09 -14.646,3.337 -16.5,2.5 -7.75,-3.498 -26.828,-18.142 -39,-18.5 -16.803,-0.494 -16.999,17.761 -32,15 -5.163,-0.95 -10.145,-2.93 -17.5,-1.5 -3.068,0.597 -4.738,1.435 -12.5,5.5 -22.556,11.815 -23,-12 -46,4 -3.461,2.408 2.543,38.631 -22,48 -7.937,3.03 -19.183,-15.33 -27,-16 -4.577,-0.392 -26.214,15.97 -35.5,19.5 -6.27,2.383 -8.543,-0.474 -14,2.5 -5.432,2.96 -28.337,37.745 -31.5,52 -6.255,28.192 20.171,68.594 22.5,75.5 2.203,6.532 6.405,26.471 6.5,28.5 0.161,3.412 -6.95,5.03 -11.5,8.5 -9.864,7.524 -10.575,25.96 -6.5,38.5 0.323,0.995 6.402,18.899 21,24.5 3.16,1.213 9.388,14.788 18,24.5 2.902,3.272 2.191,23.278 1.5,24.5 -5.303,9.387 -5.182,25.648 -3,34.5 5.199,21.087 30.345,33.561 37,35.5 0.601,0.175 14.068,10.109 15,11.5 5.752,8.584 19.287,16.964 25,20.5 20.457,12.664 51.913,4.936 71.5,-7 9.878,-6.02 23.644,-14.408 27.5,-29.5 4.875,-19.079 7.169,-14.345 12.5,-33 4.105,-14.363 -0.465,-13.251 12,-33.5 12.633,-20.524 8.687,-35.89 19,-40.5 11.879,-5.309 17.843,-0.056 31,-5.5 C -14.182,20.817 -14.822,10.192 0,0"
             id="path22" /></g><g
           id="g24"
           transform="translate(396.98,560)"><path
             d="m 0,0 c 7.608,-5.231 15.385,-10.91 26.5,-10 8.535,0.699 10.173,3.547 19,3 5.869,-0.364 32.39,-7.228 37,-9 12.542,-4.821 20.079,-14.828 30,-28 4.525,-6.008 23.332,-23.41 22.853,-29.333 -0.58,-7.184 -11.54,-19.089 -0.76,-36.233 0.937,-1.491 4.213,-0.77 6.407,-2.934 3.571,-3.522 2.373,-9.224 2,-11 -0.854,-4.065 -2.435,-4.075 -3.5,-7.5 -2.11,-6.785 14.187,-22.667 0,-31.5 -3.733,-2.324 -6.079,-17.986 -8,-25.5 -0.424,-1.658 -14.132,-31.209 -15,-35 -0.737,-3.215 -8.624,-10.772 -10,-13.5 -1.391,-2.758 -4.71,-7.581 -8.5,-9.5 -2.734,-1.385 -4.162,-3.163 -5,-4 -7.584,-7.574 -30.858,-1.956 -48.5,-13 -3.362,-2.105 -6.984,-5.105 -14,-8 -4.806,-1.983 -28.462,0.183 -36.5,4.5 -3.051,1.639 -23.066,1.549 -25,1.5 -3.538,-0.09 -14.646,3.337 -16.5,2.5 -7.75,-3.498 -26.828,-18.142 -39,-18.5 -16.803,-0.494 -16.999,17.761 -32,15 -5.163,-0.95 -10.145,-2.93 -17.5,-1.5 -3.068,0.597 -4.738,1.435 -12.5,5.5 -22.556,11.815 -23,-12 -46,4 -3.461,2.408 2.543,38.631 -22,48 -7.937,3.03 -19.183,-15.33 -27,-16 -4.577,-0.392 -26.214,15.97 -35.5,19.5 -6.27,2.383 -8.543,-0.474 -14,2.5 -5.432,2.96 -28.337,37.745 -31.5,52 -6.255,28.192 20.171,68.594 22.5,75.5 2.203,6.532 6.405,26.471 6.5,28.5 0.161,3.412 -6.95,5.03 -11.5,8.5 -9.864,7.524 -10.575,25.96 -6.5,38.5 0.323,0.995 6.402,18.899 21,24.5 3.16,1.213 9.388,14.788 18,24.5 2.902,3.272 2.191,23.278 1.5,24.5 -5.303,9.387 -5.182,25.648 -3,34.5 5.199,21.087 30.345,33.561 37,35.5 0.601,0.175 14.068,10.109 15,11.5 5.752,8.584 19.287,16.964 25,20.5 20.457,12.664 51.913,4.936 71.5,-7 9.878,-6.02 23.644,-14.408 27.5,-29.5 4.875,-19.079 7.169,-14.345 12.5,-33 4.105,-14.363 -0.465,-13.251 12,-33.5 12.633,-20.524 8.687,-35.89 19,-40.5 11.879,-5.309 17.843,-0.056 31,-5.5 C -14.182,20.817 -14.822,10.192 0,0 Z"
             id="path26" /></g></g></g></g></svg>
