<?xml version="1.0" encoding="UTF-8" standalone="no"?>
<svg
   xmlns:dc="http://purl.org/dc/elements/1.1/"
   xmlns:cc="http://creativecommons.org/ns#"
   xmlns:rdf="http://www.w3.org/1999/02/22-rdf-syntax-ns#"
   xmlns:svg="http://www.w3.org/2000/svg"
   xmlns="http://www.w3.org/2000/svg"
   id="svg2"
   version="1.1"
   xml:space="preserve"
   width="444.569"
   height="586.76208"
   viewBox="0 0 444.569 586.76208"><metadata
     id="metadata8"><rdf:RDF><cc:Work
         rdf:about=""><dc:format>image/svg+xml</dc:format><dc:type
           rdf:resource="http://purl.org/dc/dcmitype/StillImage" /><dc:title></dc:title></cc:Work></rdf:RDF></metadata><defs
     id="defs6"><clipPath
       clipPathUnits="userSpaceOnUse"
       id="clipPath16"><path
         d="M 0,792 612,792 612,0 0,0 0,792 Z"
         id="path18" /></clipPath></defs><g
     id="g10"
     transform="matrix(1.25,0,0,-1.25,-256.38788,762.82027)"><g
       id="g12"><g
         id="g14"
         clip-path="url(#clipPath16)"><g
           id="g20"
           transform="translate(249,527)"><path
             d="m 0,0 c -21.28,-13.24 -38,-6 -38.5,-52 -0.57,-52.414 64,-46 12.5,-101 -31.046,-33.156 -14.923,-80.603 5,-104 23.816,-27.97 56.209,-3.487 103,-29 57.398,-31.297 52.131,-91.846 98,-99 24.278,-3.787 48.686,9.599 62,23 5.89,5.928 46.155,-2.604 63,46 29.866,86.172 -57.538,56.568 -43,99 8.863,25.868 47,17 28.286,54.849 -9.61,19.436 -45.279,20.74 -54.286,37.151 -7.029,12.806 -50,51.667 31.667,73.333 16.361,4.341 33.966,25.676 9.333,68.667 -16.796,29.313 -62,34.667 -102,40.667 -15.968,2.395 -50.667,44 -112,14.666 C 33.838,58.386 60.015,37.339 0,0"
             id="path22" /></g><g
           id="g24"
           transform="translate(249,527)"><path
             d="m 0,0 c -21.28,-13.24 -38,-6 -38.5,-52 -0.57,-52.414 64,-46 12.5,-101 -31.046,-33.156 -14.923,-80.603 5,-104 23.816,-27.97 56.209,-3.487 103,-29 57.398,-31.297 52.131,-91.846 98,-99 24.278,-3.787 48.686,9.599 62,23 5.89,5.928 46.155,-2.604 63,46 29.866,86.172 -57.538,56.568 -43,99 8.863,25.868 47,17 28.286,54.849 -9.61,19.436 -45.279,20.74 -54.286,37.151 -7.029,12.806 -50,51.667 31.667,73.333 16.361,4.341 33.966,25.676 9.333,68.667 -16.796,29.313 -62,34.667 -102,40.667 -15.968,2.395 -50.667,44 -112,14.666 C 33.838,58.386 60.015,37.339 0,0 Z"
             id="path26" /></g></g></g></g></svg>
