<?xml version="1.0" encoding="UTF-8" standalone="no"?>
<svg
   xmlns:dc="http://purl.org/dc/elements/1.1/"
   xmlns:cc="http://creativecommons.org/ns#"
   xmlns:rdf="http://www.w3.org/1999/02/22-rdf-syntax-ns#"
   xmlns:svg="http://www.w3.org/2000/svg"
   xmlns="http://www.w3.org/2000/svg"
   id="svg2"
   version="1.1"
   xml:space="preserve"
   width="578.74042"
   height="491.79736"
   viewBox="0 0 578.74042 491.79736"><metadata
     id="metadata8"><rdf:RDF><cc:Work
         rdf:about=""><dc:format>image/svg+xml</dc:format><dc:type
           rdf:resource="http://purl.org/dc/dcmitype/StillImage" /><dc:title></dc:title></cc:Work></rdf:RDF></metadata><defs
     id="defs6"><clipPath
       clipPathUnits="userSpaceOnUse"
       id="clipPath16"><path
         d="M 0,792 612,792 612,0 0,0 0,792 Z"
         id="path18" /></clipPath></defs><g
     id="g10"
     transform="matrix(1.25,0,0,-1.25,-156.18508,841.71104)"><g
       id="g12"><g
         id="g14"
         clip-path="url(#clipPath16)"><g
           id="g20"
           transform="translate(138,540)"><path
             d="m 0,0 c 13.195,17.766 35.119,28.041 42,31 12.219,5.255 14.736,3.665 35,12 10.008,4.116 17.672,8.077 33,16 11.883,6.142 14.779,8.052 18,11 7.775,7.117 8.201,11.829 15,19 6.328,6.674 12.172,9.146 22,14 24.096,11.903 30.655,17.639 40,22 39.594,18.478 100.445,-1.149 106,-3 60.362,-20.11 92.889,-65.306 102,-79 4.798,-7.211 66.391,-103.208 18,-198 -33.983,-66.569 -99.439,-87.94 -118,-94 -46.984,-15.34 -96.046,-12.164 -109,-2 -1.452,1.139 -8.647,7.228 -20,11 -6.951,2.31 -12.007,2.603 -15,3 -18.844,2.5 -26.833,18.527 -45,31 -3.26,2.238 -6.598,4.19 -46,16 -60.101,18.013 -59.489,15.616 -65,20 -22.117,17.594 -23.253,49.276 -25,98 -1.207,33.676 -1.632,53.646 12,72"
             id="path22" /></g><g
           id="g24"
           transform="translate(138,540)"><path
             d="m 0,0 c 13.195,17.766 35.119,28.041 42,31 12.219,5.255 14.736,3.665 35,12 10.008,4.116 17.672,8.077 33,16 11.883,6.142 14.779,8.052 18,11 7.775,7.117 8.201,11.829 15,19 6.328,6.674 12.172,9.146 22,14 24.096,11.903 30.655,17.639 40,22 39.594,18.478 100.445,-1.149 106,-3 60.362,-20.11 92.889,-65.306 102,-79 4.798,-7.211 66.391,-103.208 18,-198 -33.983,-66.569 -99.439,-87.94 -118,-94 -46.984,-15.34 -96.046,-12.164 -109,-2 -1.452,1.139 -8.647,7.228 -20,11 -6.951,2.31 -12.007,2.603 -15,3 -18.844,2.5 -26.833,18.527 -45,31 -3.26,2.238 -6.598,4.19 -46,16 -60.101,18.013 -59.489,15.616 -65,20 -22.117,17.594 -23.253,49.276 -25,98 -1.207,33.676 -1.632,53.646 12,72 z"
             id="path26" /></g></g></g></g></svg>
