<?xml version="1.0" encoding="UTF-8" standalone="no"?>
<svg
   xmlns:dc="http://purl.org/dc/elements/1.1/"
   xmlns:cc="http://creativecommons.org/ns#"
   xmlns:rdf="http://www.w3.org/1999/02/22-rdf-syntax-ns#"
   xmlns:svg="http://www.w3.org/2000/svg"
   xmlns="http://www.w3.org/2000/svg"
   id="svg2"
   version="1.1"
   xml:space="preserve"
   width="224.76332"
   height="205.43898"
   viewBox="0 0 224.76332 205.43897"><metadata
     id="metadata8"><rdf:RDF><cc:Work
         rdf:about=""><dc:format>image/svg+xml</dc:format><dc:type
           rdf:resource="http://purl.org/dc/dcmitype/StillImage" /><dc:title></dc:title></cc:Work></rdf:RDF></metadata><defs
     id="defs6"><clipPath
       clipPathUnits="userSpaceOnUse"
       id="clipPath16"><path
         d="m 0,841.89 595.28,0 L 595.28,0 0,0 0,841.89 Z"
         id="path18" /></clipPath></defs><g
     id="g10"
     transform="matrix(1.25,0,0,-1.25,-422.34265,500.90357)"><g
       id="g12"><g
         id="g14"
         clip-path="url(#clipPath16)"><g
           id="g20"
           transform="translate(343.6621,292.4873)"><path
             d="m 0,0 c 0,0 -12.076,7.245 -1.342,32.472 0,0 3.489,6.978 3.221,10.735 -0.269,3.757 -0.538,7.782 8.587,12.881 9.125,5.099 23.616,14.492 25.226,18.249 1.611,3.757 10.199,13.685 13.955,16.906 3.757,3.221 11.003,18.25 29.789,16.908 18.785,-1.341 27.104,-9.392 30.666,-31.13 0,0 10.393,-34.618 15.223,-38.107 4.83,-3.489 9.661,-14.76 25.227,-18.518 15.565,-3.757 26.3,-15.027 22.81,-23.615 0,0 2.685,-5.366 -13.418,-13.418 0,0 -8.319,-7.514 -10.198,-12.077 -1.879,-4.562 -2.952,-17.443 -30.325,-20.395 0,0 -2.416,0.268 -4.563,-3.757 -2.146,-4.026 -8.049,-3.488 -8.855,-2.684 -0.806,0.805 -15.565,2.416 -18.249,2.952 -2.684,0.536 -37.302,3.488 -43.475,11.271 0,0 0.268,3.221 -4.562,3.221 -4.83,0 -8.396,-2.284 -12.613,10.734 C 24.135,-18.211 9.124,-10.733 0,0"
             id="path22" /></g></g></g></g></svg>
