<?xml version="1.0" encoding="UTF-8" standalone="no"?>
<svg
   xmlns:dc="http://purl.org/dc/elements/1.1/"
   xmlns:cc="http://creativecommons.org/ns#"
   xmlns:rdf="http://www.w3.org/1999/02/22-rdf-syntax-ns#"
   xmlns:svg="http://www.w3.org/2000/svg"
   xmlns="http://www.w3.org/2000/svg"
   id="svg2"
   version="1.1"
   xml:space="preserve"
   width="460.83801"
   height="335.44995"
   viewBox="0 0 460.83801 335.44995"><metadata
     id="metadata8"><rdf:RDF><cc:Work
         rdf:about=""><dc:format>image/svg+xml</dc:format><dc:type
           rdf:resource="http://purl.org/dc/dcmitype/StillImage" /><dc:title></dc:title></cc:Work></rdf:RDF></metadata><defs
     id="defs6"><clipPath
       clipPathUnits="userSpaceOnUse"
       id="clipPath16"><path
         d="M 0,792 612,792 612,0 0,0 0,792 Z"
         id="path18" /></clipPath></defs><g
     id="g10"
     transform="matrix(1.25,0,0,-1.25,-202.9167,635.92122)"><g
       id="g12"><g
         id="g14"
         clip-path="url(#clipPath16)"><g
           id="g20"
           transform="translate(357,251)"><path
             d="m 0,0 c 30.904,-10.939 63.989,-9.999 64,-10 -10e-4,10e-4 7.487,1.174 10,2 10.875,3.572 5.018,25.717 19,37 3.439,2.775 3.654,1.324 17,9 5.049,2.904 10.605,6.325 13,8 11.336,7.926 12.051,18.82 21,37 13.004,26.418 21.728,24.206 25,42 1.828,9.942 -0.937,10.402 1,30 1.886,19.086 4.658,20.149 3,28 -2.965,14.043 -12.177,12.286 -18,30 -2.4,7.301 -2.352,12.214 -7,23 -3.468,8.048 -5.854,10.788 -7,12 -6.899,7.295 -18.288,11.462 -22,8 -3.143,-2.932 1.104,-9.579 -2,-12 -3.532,-2.756 -10.266,4.89 -18,3 -6.084,-1.487 -5.829,-7.175 -11,-11 -10.609,-7.847 -27.855,4.133 -69,14 -9.967,2.39 -14.012,2.9 -19,2 -13.47,-2.43 -26.744,-13.859 -31,-28 -4.022,-13.365 2.994,-19.241 -2,-26 -7.266,-9.833 -23.335,0.951 -43,-6 -26.298,-9.296 -24.314,-38.039 -46,-42 -18.04,-3.295 -25.399,15.503 -45,11 -15.296,-3.514 -28.819,-19.096 -27,-30 1.268,-7.604 9.32,-8.883 11,-19 1.336,-8.043 -3.13,-10.978 -3,-18 0.197,-10.632 10.68,-16.995 26,-29 32.1,-25.155 25.83,-28.375 43,-37 19.504,-9.797 39.086,-11.415 47,-12 15.961,-1.18 19.397,1.443 33,-1 16.927,-3.04 17.858,-8.224 37,-15"
             id="path22" /></g><g
           id="g24"
           transform="translate(357,251)"><path
             d="m 0,0 c 30.904,-10.939 63.989,-9.999 64,-10 -10e-4,10e-4 7.487,1.174 10,2 10.875,3.572 5.018,25.717 19,37 3.439,2.775 3.654,1.324 17,9 5.049,2.904 10.605,6.325 13,8 11.336,7.926 12.051,18.82 21,37 13.004,26.418 21.728,24.206 25,42 1.828,9.942 -0.937,10.402 1,30 1.886,19.086 4.658,20.149 3,28 -2.965,14.043 -12.177,12.286 -18,30 -2.4,7.301 -2.352,12.214 -7,23 -3.468,8.048 -5.854,10.788 -7,12 -6.899,7.295 -18.288,11.462 -22,8 -3.143,-2.932 1.104,-9.579 -2,-12 -3.532,-2.756 -10.266,4.89 -18,3 -6.084,-1.487 -5.829,-7.175 -11,-11 -10.609,-7.847 -27.855,4.133 -69,14 -9.967,2.39 -14.012,2.9 -19,2 -13.47,-2.43 -26.744,-13.859 -31,-28 -4.022,-13.365 2.994,-19.241 -2,-26 -7.266,-9.833 -23.335,0.951 -43,-6 -26.298,-9.296 -24.314,-38.039 -46,-42 -18.04,-3.295 -25.399,15.503 -45,11 -15.296,-3.514 -28.819,-19.096 -27,-30 1.268,-7.604 9.32,-8.883 11,-19 1.336,-8.043 -3.13,-10.978 -3,-18 0.197,-10.632 10.68,-16.995 26,-29 32.1,-25.155 25.83,-28.375 43,-37 19.504,-9.797 39.086,-11.415 47,-12 15.961,-1.18 19.397,1.443 33,-1 16.927,-3.04 17.858,-8.224 37,-15 z"
             id="path26" /></g></g></g></g></svg>
