<?xml version="1.0" encoding="UTF-8" standalone="no"?>
<svg
   xmlns:dc="http://purl.org/dc/elements/1.1/"
   xmlns:cc="http://creativecommons.org/ns#"
   xmlns:rdf="http://www.w3.org/1999/02/22-rdf-syntax-ns#"
   xmlns:svg="http://www.w3.org/2000/svg"
   xmlns="http://www.w3.org/2000/svg"
   id="svg2"
   version="1.1"
   xml:space="preserve"
   width="359.45444"
   height="420.20859"
   viewBox="0 0 359.45444 420.20859"><metadata
     id="metadata8"><rdf:RDF><cc:Work
         rdf:about=""><dc:format>image/svg+xml</dc:format><dc:type
           rdf:resource="http://purl.org/dc/dcmitype/StillImage" /><dc:title></dc:title></cc:Work></rdf:RDF></metadata><defs
     id="defs6"><clipPath
       clipPathUnits="userSpaceOnUse"
       id="clipPath16"><path
         d="M 0,792 612,792 612,0 0,0 0,792 Z"
         id="path18" /></clipPath></defs><g
     id="g10"
     transform="matrix(1.25,0,0,-1.25,-220.73491,827.29441)"><g
       id="g12"><g
         id="g14"
         clip-path="url(#clipPath16)"><g
           id="g20"
           transform="translate(195.3381,455.714)"><path
             d="m 0,0 c 30.662,18.408 -27.704,44.648 -16.899,77.16 5.181,15.593 21.786,28.738 37.085,31.237 13.307,2.173 31.482,-3.599 40.391,7.581 12.209,15.32 -12.515,27.395 24.152,34.729 26.468,5.293 9.749,54.425 52.6,54.912 29.333,0.334 74.212,-32.655 78.896,-68.153 0.83,-6.286 13.222,-22.168 19.366,-25.716 28.456,-16.432 37.615,-22.465 30.334,-38.847 -5.334,-12 -29.324,-21.925 -17.97,-49.535 10.04,-24.415 17.305,-27.318 0.885,-44.893 -20.189,-21.609 -10.371,-34.341 -21.511,-47.522 -10.617,-12.562 -19.382,-0.084 -42,-8 -19.305,-6.757 -1.328,-33.216 -23.874,-42.283 -17.292,-6.954 -24.377,-22.6 -57.213,8.04 -28.948,27.011 -29.983,23.977 -60.913,35.576 -21.334,8 -12,-12 -38.936,-10.313 -19.943,1.248 -5.125,24.135 -7.731,38.98 C -7.718,-22.101 -25.183,-15.119 0,0"
             id="path22" /></g><g
           id="g24"
           transform="translate(195.3381,455.714)"><path
             d="m 0,0 c 30.662,18.408 -27.704,44.648 -16.899,77.16 5.181,15.593 21.786,28.738 37.085,31.237 13.307,2.173 31.482,-3.599 40.391,7.581 12.209,15.32 -12.515,27.395 24.152,34.729 26.468,5.293 9.749,54.425 52.6,54.912 29.333,0.334 74.212,-32.655 78.896,-68.153 0.83,-6.286 13.222,-22.168 19.366,-25.716 28.456,-16.432 37.615,-22.465 30.334,-38.847 -5.334,-12 -29.324,-21.925 -17.97,-49.535 10.04,-24.415 17.305,-27.318 0.885,-44.893 -20.189,-21.609 -10.371,-34.341 -21.511,-47.522 -10.617,-12.562 -19.382,-0.084 -42,-8 -19.305,-6.757 -1.328,-33.216 -23.874,-42.283 -17.292,-6.954 -24.377,-22.6 -57.213,8.04 -28.948,27.011 -29.983,23.977 -60.913,35.576 -21.334,8 -12,-12 -38.936,-10.313 -19.943,1.248 -5.125,24.135 -7.731,38.98 C -7.718,-22.101 -25.183,-15.119 0,0 Z"
             id="path26" /></g></g></g></g></svg>
