<svg xmlns="http://www.w3.org/2000/svg" viewBox="0 0 612 792"><path d="M195.3 336.3c30.7-18.4-27.7-44.6-16.9-77.2 5.2-15.6 21.8-28.7 37.1-31.2 13.3-2.2 31.5 3.6 40.4-7.6 12.2-15.3-12.5-27.4 24.2-34.7 26.5-5.3 9.7-54.4 52.6-54.9 29.3-0.3 74.2 32.7 78.9 68.2 0.8 6.3 13.2 22.2 19.4 25.7 28.5 16.4 37.6 22.5 30.3 38.8 -5.3 12-29.3 21.9-18 49.5 10 24.4 17.3 27.3 0.9 44.9 -20.2 21.6-10.4 34.3-21.5 47.5 -10.6 12.6-19.4 0.1-42 8 -19.3 6.8-1.3 33.2-23.9 42.3 -17.3 7-24.4 22.6-57.2-8 -28.9-27-30-24-60.9-35.6 -21.3-8-12 12-38.9 10.3 -19.9-1.2-5.1-24.1-7.7-39C187.6 358.4 170.2 351.4 195.3 336.3z" stroke="#000"/></svg>
