<?xml version="1.0" encoding="UTF-8" standalone="no"?>
<svg
   xmlns:dc="http://purl.org/dc/elements/1.1/"
   xmlns:cc="http://creativecommons.org/ns#"
   xmlns:rdf="http://www.w3.org/1999/02/22-rdf-syntax-ns#"
   xmlns:svg="http://www.w3.org/2000/svg"
   xmlns="http://www.w3.org/2000/svg"
   id="svg2"
   version="1.1"
   xml:space="preserve"
   width="215.34065"
   height="260.83435"
   viewBox="0 0 215.34065 260.83434"><metadata
     id="metadata8"><rdf:RDF><cc:Work
         rdf:about=""><dc:format>image/svg+xml</dc:format><dc:type
           rdf:resource="http://purl.org/dc/dcmitype/StillImage" /><dc:title></dc:title></cc:Work></rdf:RDF></metadata><defs
     id="defs6"><clipPath
       clipPathUnits="userSpaceOnUse"
       id="clipPath16"><path
         d="m 0,841.89 595.28,0 L 595.28,0 0,0 0,841.89 Z"
         id="path18" /></clipPath></defs><g
     id="g10"
     transform="matrix(1.25,0,0,-1.25,-262.54334,686.15529)"><g
       id="g12"><g
         id="g14"
         clip-path="url(#clipPath16)"><g
           id="g20"
           transform="translate(221.2432,409.0947)"><path
             d="m 0,0 c 0,0 10.834,9.85 11.327,21.669 -2.462,18.222 -4.432,57.622 -13.79,68.456 -11.819,9.357 -10.834,22.163 -1.97,27.58 8.865,5.417 14.282,4.432 22.655,-1.971 8.372,-6.402 25.117,-5.909 33.489,6.895 11.288,17.264 21.67,19.7 30.042,15.267 8.372,-4.432 13.298,-21.177 23.64,-23.146 10.341,-1.97 10.323,-1.574 26.594,1.477 7.88,1.478 19.206,-7.88 21.669,-13.789 2.463,-5.91 0.012,-13.581 -8.372,-27.087 -8.865,-14.283 -12.744,-33.591 -2.463,-65.995 0.493,-4.432 38.415,-39.398 3.449,-42.353 -7.976,-0.674 -15.267,6.894 -32.012,0.492 -16.745,-6.402 -22.162,-17.73 -22.162,-20.192 0,-2.462 -2.464,-12.312 -11.821,-15.759 -3.948,-1.454 -16.175,0.213 -20.192,23.639 -2.955,17.237 -25.117,27.087 -39.398,21.67 0,0 -11.328,-6.895 -21.67,-3.448 C -15.76,-11.82 0,0 0,0"
             id="path22" /></g></g></g></g></svg>
